<?xml version="1.0" encoding="utf-8"?>
<!-- Generator: Adobe Illustrator 19.0.0, SVG Export Plug-In . SVG Version: 6.00 Build 0)  -->
<svg version="1.1" id="Layer_1" xmlns="http://www.w3.org/2000/svg" xmlns:xlink="http://www.w3.org/1999/xlink" x="0px" y="0px"
	 viewBox="0 0 1122 782" style="enable-background:new 0 0 1122 782;" xml:space="preserve">
<style type="text/css">
	.st0{display:none;}
	.st1{display:inline;}
	.st2{fill:#FAFAFA;}
	.st3{display:inline;fill:#43566A;}
	.st4{fill:#7EA2C8;}
	.st5{fill:#46596E;}
	.st6{display:inline;fill:#8A8A8A;}
	.st7{fill:#2A282C;}
	.st8{fill:#3B393D;}
	.st9{fill:#FFFFFF;}
	.st10{fill:none;}
	.st11{fill:#B7B9BB;}
	.st12{fill:none;stroke:#51A6CB;stroke-width:4;stroke-miterlimit:10;}
	.st13{fill:#F7F8F6;}
</style>
<g id="web" class="st0">
	<g id="XMLID_161_" class="st1">
		<path id="XMLID_162_" class="st2" d="M828.6,225.3c4,2.3,7.2,7.9,7.2,12.5c0,4.6-3.3,6.4-7.3,4.1l-23.6-13.7
			c-4-2.3-7.2-7.9-7.2-12.5c0-4.6,3.3-6.4,7.3-4.1L828.6,225.3z"/>
	</g>
	<path id="XMLID_20_" class="st3" d="M1076.2,521.8c0.3-0.1,0.5-0.2,0.7-0.3l10.6-6.1c-0.2,0.1-0.4,0.2-0.7,0.3
		c-0.1,0-0.2,0-0.2,0.1c-0.2,0-0.4,0.1-0.6,0.1c-0.1,0-0.2,0-0.3,0c-0.3,0-0.6,0-0.9,0c0,0,0,0,0,0c-0.3,0-0.7-0.1-1-0.2
		c-0.1,0-0.2-0.1-0.3-0.1c-0.3-0.1-0.5-0.2-0.8-0.3c-0.1,0-0.2-0.1-0.3-0.1c-0.4-0.2-0.8-0.4-1.2-0.6l-101.6-58.7
		c-0.2-0.1-0.4-0.3-0.7-0.4c-0.2-0.1-0.3-0.2-0.5-0.3c-0.1-0.1-0.2-0.2-0.3-0.2c-0.2-0.1-0.3-0.3-0.5-0.4c-0.1-0.1-0.2-0.1-0.3-0.2
		c-0.2-0.2-0.4-0.3-0.5-0.5c-0.1-0.1-0.1-0.1-0.2-0.2c-0.2-0.2-0.5-0.5-0.7-0.7c-0.1-0.1-0.2-0.2-0.3-0.3c-0.1-0.1-0.2-0.3-0.4-0.4
		c-0.1-0.1-0.2-0.2-0.3-0.3c-0.1-0.1-0.2-0.3-0.3-0.4c-0.1-0.1-0.2-0.2-0.3-0.3c-0.1-0.1-0.2-0.3-0.3-0.4c-0.1-0.1-0.2-0.2-0.2-0.3
		c-0.1-0.1-0.2-0.3-0.3-0.4c-0.1-0.1-0.1-0.2-0.2-0.4c-0.1-0.1-0.2-0.3-0.2-0.4c-0.1-0.1-0.1-0.2-0.2-0.4c-0.1-0.1-0.1-0.3-0.2-0.4
		c-0.1-0.1-0.1-0.2-0.2-0.4c-0.1-0.1-0.1-0.3-0.2-0.4c0-0.1-0.1-0.2-0.1-0.4c0-0.1-0.1-0.3-0.1-0.4c0-0.1,0-0.1-0.1-0.2
		c-0.1-0.2-0.1-0.4-0.1-0.6c0-0.1,0-0.2,0-0.3c0-0.2,0-0.3-0.1-0.5c0-0.2,0-0.3,0-0.5l0.1-22l-59.2-34.2c-0.6-0.3-1.1-0.7-1.7-1
		c-0.4-0.3-0.8-0.5-1.2-0.8c-0.3-0.2-0.5-0.4-0.8-0.6c-0.4-0.3-0.8-0.6-1.2-0.9c-0.2-0.2-0.5-0.4-0.7-0.6c-0.5-0.4-0.9-0.8-1.4-1.2
		c-0.1-0.1-0.3-0.3-0.4-0.4c-0.6-0.6-1.2-1.1-1.8-1.7c-0.3-0.3-0.5-0.5-0.7-0.8c-0.3-0.3-0.6-0.6-0.8-0.9c-0.2-0.3-0.5-0.6-0.7-0.8
		c-0.3-0.3-0.5-0.6-0.8-0.9c-0.2-0.3-0.4-0.6-0.6-0.9c-0.2-0.3-0.5-0.6-0.7-0.9c-0.2-0.3-0.4-0.6-0.6-0.9c-0.2-0.3-0.4-0.6-0.6-1
		c-0.2-0.3-0.4-0.6-0.5-0.9c-0.2-0.3-0.4-0.6-0.6-1c-0.2-0.3-0.3-0.6-0.5-0.9c-0.2-0.3-0.3-0.6-0.5-1c-0.1-0.3-0.3-0.6-0.4-0.9
		c-0.1-0.3-0.3-0.6-0.4-1c-0.1-0.3-0.2-0.6-0.3-0.9c-0.1-0.3-0.2-0.6-0.3-0.9c-0.2-0.5-0.3-1-0.4-1.5c0-0.1,0-0.2-0.1-0.3
		c-0.1-0.5-0.2-1-0.2-1.5c0-0.1,0-0.2,0-0.2c-0.1-0.5-0.1-1-0.1-1.5l0.1-20.5l-44.3-25.6c-0.2-0.1-0.4-0.3-0.7-0.4
		c-0.2-0.1-0.3-0.2-0.5-0.3c-0.1-0.1-0.2-0.2-0.3-0.2c-0.2-0.1-0.3-0.3-0.5-0.4c-0.1-0.1-0.2-0.1-0.3-0.2c-0.2-0.2-0.4-0.3-0.6-0.5
		c-0.1-0.1-0.1-0.1-0.2-0.2c-0.2-0.2-0.5-0.5-0.7-0.7c-0.1-0.1-0.2-0.2-0.3-0.3c-0.1-0.1-0.2-0.2-0.3-0.4c-0.1-0.1-0.2-0.2-0.3-0.3
		c-0.1-0.1-0.2-0.3-0.3-0.4c-0.1-0.1-0.2-0.2-0.3-0.3c-0.1-0.1-0.2-0.3-0.3-0.4c-0.1-0.1-0.2-0.2-0.2-0.3c-0.1-0.1-0.2-0.3-0.3-0.4
		c-0.1-0.1-0.1-0.2-0.2-0.3c-0.1-0.1-0.2-0.3-0.2-0.4c-0.1-0.1-0.1-0.2-0.2-0.3c-0.1-0.1-0.1-0.3-0.2-0.4c-0.1-0.1-0.1-0.2-0.2-0.3
		c-0.1-0.1-0.1-0.3-0.2-0.4c0-0.1-0.1-0.2-0.1-0.3c0-0.1-0.1-0.3-0.1-0.4c0-0.1,0-0.1-0.1-0.2c-0.1-0.2-0.1-0.4-0.1-0.6
		c0-0.1,0-0.2,0-0.3c0-0.2,0-0.3-0.1-0.5c0-0.2,0-0.3,0-0.5l0.1-33.6c0-0.3,0-0.6,0.1-0.9c0,0,0-0.1,0-0.1c0.1-0.2,0.1-0.4,0.2-0.6
		c0-0.1,0.1-0.1,0.1-0.2c0.1-0.1,0.2-0.3,0.3-0.4c0-0.1,0.1-0.1,0.1-0.2c0.2-0.2,0.3-0.3,0.5-0.4l0,0c0,0,0,0,0,0l-10.6,6.1
		c-0.2,0.1-0.4,0.3-0.5,0.4c0,0-0.1,0.1-0.1,0.2c-0.1,0.1-0.2,0.3-0.3,0.4c0,0.1-0.1,0.1-0.1,0.2c-0.1,0.2-0.2,0.4-0.2,0.6
		c0,0,0,0.1,0,0.1c0,0,0,0,0,0c-0.1,0.3-0.1,0.6-0.1,0.9l-0.1,33.6c0,0.1,0,0.2,0,0.4c0,0,0,0.1,0,0.1c0,0.2,0,0.3,0.1,0.5
		c0,0.1,0,0.2,0,0.3c0,0.2,0.1,0.4,0.1,0.6c0,0.1,0,0.1,0,0.2c0,0,0,0,0,0c0,0.1,0.1,0.3,0.1,0.4c0,0.1,0.1,0.2,0.1,0.4
		c0.1,0.1,0.1,0.3,0.2,0.4c0.1,0.1,0.1,0.2,0.2,0.4c0.1,0.1,0.1,0.3,0.2,0.4c0.1,0.1,0.1,0.2,0.2,0.4c0.1,0.1,0.2,0.3,0.2,0.4
		c0.1,0.1,0.1,0.2,0.2,0.4c0.1,0.1,0.2,0.3,0.3,0.4c0.1,0.1,0.2,0.2,0.2,0.4c0.1,0.1,0.2,0.3,0.3,0.4c0.1,0.1,0.2,0.2,0.3,0.3
		c0.1,0.1,0.2,0.3,0.3,0.4c0.1,0.1,0.2,0.2,0.3,0.3c0.1,0.1,0.2,0.2,0.3,0.4c0.1,0.1,0.2,0.2,0.3,0.3c0,0,0,0,0,0
		c0.2,0.2,0.5,0.5,0.7,0.7c0.1,0.1,0.1,0.1,0.2,0.2c0.2,0.2,0.4,0.3,0.6,0.5c0.1,0.1,0.2,0.1,0.3,0.2c0.2,0.1,0.3,0.3,0.5,0.4
		c0.1,0.1,0.2,0.2,0.3,0.2c0.2,0.1,0.3,0.2,0.5,0.3c0,0,0.1,0.1,0.1,0.1c0.2,0.1,0.4,0.2,0.6,0.3l44.3,25.6l-0.1,20.5
		c0,0.3,0,0.6,0,0.9c0,0.2,0,0.4,0.1,0.6c0,0.1,0,0.2,0,0.2c0.1,0.5,0.1,1,0.2,1.5c0,0.1,0,0.2,0.1,0.3c0.1,0.5,0.2,1,0.4,1.5
		c0,0,0,0.1,0,0.1c0.1,0.3,0.2,0.6,0.3,0.9c0.1,0.3,0.2,0.6,0.3,0.9c0.1,0.3,0.3,0.6,0.4,0.9c0.1,0.3,0.3,0.6,0.4,0.9
		c0.1,0.3,0.3,0.6,0.5,0.9c0.2,0.3,0.3,0.6,0.5,0.9c0.2,0.3,0.4,0.6,0.6,0.9c0.2,0.3,0.3,0.6,0.5,0.9c0.2,0.3,0.4,0.6,0.6,0.9
		c0.2,0.3,0.4,0.6,0.6,0.9c0.2,0.3,0.5,0.6,0.7,0.9c0.2,0.3,0.4,0.6,0.7,0.9c0.2,0.3,0.5,0.6,0.8,0.9c0.2,0.3,0.5,0.6,0.7,0.8
		c0.3,0.3,0.5,0.6,0.8,0.9c0.2,0.3,0.5,0.5,0.7,0.8c0,0,0,0,0,0c0.6,0.6,1.2,1.1,1.8,1.7c0.1,0.1,0.3,0.3,0.4,0.4
		c0.5,0.4,0.9,0.8,1.4,1.2c0.2,0.2,0.5,0.4,0.7,0.6c0.4,0.3,0.8,0.6,1.2,0.9c0.3,0.2,0.5,0.4,0.8,0.6c0.4,0.3,0.8,0.6,1.2,0.8
		c0.1,0.1,0.2,0.1,0.3,0.2c0.5,0.3,0.9,0.6,1.4,0.8l59.2,34.2l-0.1,22c0,0.1,0,0.2,0,0.4c0,0,0,0.1,0,0.1c0,0.2,0,0.3,0.1,0.5
		c0,0.1,0,0.2,0,0.3c0,0.2,0.1,0.4,0.1,0.6c0,0.1,0,0.1,0,0.2c0,0,0,0,0,0c0,0.1,0.1,0.3,0.1,0.4c0,0.1,0.1,0.2,0.1,0.4
		c0.1,0.1,0.1,0.3,0.2,0.4c0.1,0.1,0.1,0.2,0.2,0.4c0.1,0.1,0.1,0.3,0.2,0.4c0.1,0.1,0.1,0.2,0.2,0.4c0.1,0.1,0.2,0.3,0.2,0.4
		c0.1,0.1,0.1,0.2,0.2,0.3c0.1,0.1,0.2,0.3,0.3,0.4c0.1,0.1,0.1,0.2,0.2,0.3c0.1,0.1,0.2,0.3,0.3,0.4c0.1,0.1,0.2,0.2,0.3,0.3
		c0.1,0.1,0.2,0.3,0.3,0.4c0.1,0.1,0.2,0.2,0.3,0.3c0.1,0.1,0.2,0.3,0.4,0.4c0.1,0.1,0.2,0.2,0.3,0.3c0,0,0,0,0,0
		c0.2,0.2,0.5,0.5,0.7,0.7c0.1,0.1,0.1,0.1,0.2,0.2c0.2,0.2,0.4,0.3,0.5,0.5c0.1,0.1,0.2,0.1,0.3,0.2c0.2,0.1,0.3,0.3,0.5,0.4
		c0.1,0.1,0.2,0.2,0.3,0.2c0.2,0.1,0.3,0.2,0.5,0.3c0,0,0.1,0.1,0.1,0.1c0.2,0.1,0.4,0.2,0.6,0.3l101.6,58.7
		c0.4,0.2,0.8,0.4,1.2,0.6c0.1,0.1,0.2,0.1,0.3,0.1c0.3,0.1,0.6,0.2,0.8,0.3c0.1,0,0.1,0.1,0.2,0.1c0,0,0.1,0,0.1,0
		c0.3,0.1,0.7,0.2,1,0.2c0,0,0,0,0,0c0.3,0,0.6,0.1,0.9,0c0.1,0,0.2,0,0.3,0c0.2,0,0.4,0,0.6-0.1
		C1076,521.9,1076.1,521.8,1076.2,521.8z"/>
	<g id="XMLID_92_" class="st1">
		<path id="XMLID_94_" class="st4" d="M1094.4,366.5c4.7,2.7,8.5,9.3,8.5,14.7l-0.5,171.5c0,5.4-3.9,7.6-8.5,4.9L799.6,387.7
			c-4.7-2.7-8.5-9.3-8.5-14.7l0.5-171.5c0-5.4,3.9-7.6,8.5-4.9L1094.4,366.5z M1078.3,518.7l0.1-33.6c0-3.5-3.5-8.3-7.7-10.8
			l-50.8-29.3l0.1-20.5c0-8.6-8.6-20.6-19.2-26.7l-52.6-30.4l0.1-22c0-3.5-3.5-8.3-7.7-10.8L838.8,276c-4.3-2.5-7.8-1.6-7.8,1.8
			l-0.1,33.6c0,3.5,3.5,8.3,7.7,10.8l44.3,25.6l-0.1,20.5c0,8.6,8.6,20.6,19.2,26.7l59.2,34.2l-0.1,22c0,3.5,3.5,8.3,7.7,10.8
			l101.6,58.7C1074.8,523,1078.3,522.2,1078.3,518.7 M1084.1,389.5c4,2.3,7.3,0.4,7.3-4.1c0-4.6-3.2-10.2-7.2-12.5L857.6,242
			c-4-2.3-7.3-0.4-7.3,4.1c0,4.6,3.2,10.2,7.2,12.5L1084.1,389.5 M804.9,228.3l23.6,13.7c4,2.3,7.3,0.4,7.3-4.1
			c0-4.6-3.2-10.2-7.2-12.5L805,211.7c-4-2.3-7.3-0.4-7.3,4.1C797.7,220.4,800.9,226,804.9,228.3"/>
	</g>
	<g id="XMLID_89_" class="st1">
		<path id="XMLID_91_" class="st2" d="M1084.2,372.8c4,2.3,7.2,7.9,7.2,12.5c0,4.6-3.3,6.4-7.3,4.1L857.6,258.7
			c-4-2.3-7.2-7.9-7.2-12.5c0-4.6,3.3-6.4,7.3-4.1L1084.2,372.8z"/>
	</g>
	<g id="XMLID_17_" class="st1">
		<path id="XMLID_56_" class="st5" d="M841.8,221.2c-0.7-0.7-1.5-1.3-2.2-1.8L841.8,221.2z"/>
		<path id="XMLID_58_" class="st5" d="M868.2,235.9c-0.6-0.3-1.2-0.6-1.7-0.8L868.2,235.9z"/>
		<path id="XMLID_59_" class="st5" d="M1112.9,547.5c0-0.3,0-0.6,0-1l0.5-171.5c0-0.3,0-0.5,0-0.8c0,0,0-0.1,0-0.1
			c0-0.5-0.1-1-0.2-1.5c0-0.1,0-0.2-0.1-0.3c-0.1-0.5-0.2-1-0.4-1.5c0,0,0,0,0,0c0,0,0,0,0,0c-0.1-0.4-0.2-0.7-0.4-1.1
			c0-0.1-0.1-0.2-0.1-0.3c-0.1-0.3-0.2-0.5-0.3-0.8c-0.1-0.1-0.1-0.3-0.2-0.4c-0.1-0.2-0.2-0.4-0.3-0.7c-0.1-0.1-0.2-0.3-0.2-0.4
			c-0.1-0.2-0.2-0.4-0.3-0.6c-0.1-0.1-0.2-0.3-0.3-0.4c-0.1-0.2-0.2-0.4-0.3-0.6c-0.1-0.1-0.2-0.3-0.3-0.4c-0.1-0.2-0.2-0.4-0.4-0.5
			c-0.1-0.1-0.2-0.3-0.3-0.4c-0.1-0.2-0.3-0.3-0.4-0.5c-0.1-0.1-0.2-0.3-0.3-0.4c-0.1-0.2-0.3-0.3-0.4-0.5c0,0-0.1-0.1-0.1-0.1
			c0,0-0.1-0.1-0.1-0.1c-0.3-0.3-0.7-0.7-1.1-1c0,0-0.1-0.1-0.1-0.1c-0.4-0.3-0.8-0.6-1.2-0.9c0,0-0.1-0.1-0.1-0.1
			c-0.1-0.1-0.3-0.2-0.4-0.3L810.7,190.5c-0.3-0.2-0.6-0.3-1-0.5c-0.1,0-0.2-0.1-0.3-0.1c-0.2-0.1-0.4-0.2-0.6-0.2c0,0-0.1,0-0.1,0
			c-0.1,0-0.1,0-0.2,0c-0.3-0.1-0.5-0.1-0.8-0.2c-0.1,0-0.2,0-0.2,0c-0.3,0-0.6,0-0.9,0c-0.1,0-0.1,0-0.2,0c-0.2,0-0.5,0.1-0.7,0.1
			c-0.1,0-0.2,0-0.2,0.1c-0.3,0.1-0.5,0.2-0.8,0.3l-10.6,6.1c0.2-0.1,0.5-0.2,0.8-0.3c0.1,0,0.2,0,0.2-0.1c0.2-0.1,0.5-0.1,0.7-0.1
			c0.1,0,0.1,0,0.2,0c0.3,0,0.6,0,0.9,0c0.1,0,0.2,0,0.2,0c0.3,0,0.5,0.1,0.8,0.2c0.1,0,0.2,0.1,0.3,0.1c0.2,0.1,0.4,0.1,0.6,0.2
			c0.1,0,0.2,0.1,0.3,0.1c0.3,0.1,0.6,0.3,1,0.5l294.2,169.9c0.2,0.1,0.4,0.2,0.6,0.4c0.4,0.3,0.8,0.5,1.2,0.9c0,0,0.1,0.1,0.1,0.1
			c0.4,0.3,0.7,0.6,1.1,1c0.1,0.1,0.2,0.2,0.3,0.3c0.1,0.1,0.3,0.3,0.4,0.5c0.1,0.1,0.2,0.3,0.3,0.4c0.1,0.2,0.3,0.3,0.4,0.5
			c0.1,0.1,0.2,0.3,0.3,0.4c0.1,0.2,0.2,0.3,0.4,0.5c0.1,0.1,0.2,0.3,0.3,0.4c0.1,0.2,0.2,0.4,0.3,0.6c0.1,0.1,0.2,0.3,0.3,0.4
			c0.1,0.2,0.2,0.4,0.3,0.6c0.1,0.1,0.2,0.3,0.2,0.4c0.1,0.2,0.2,0.4,0.3,0.6c0.1,0.1,0.1,0.3,0.2,0.4c0.1,0.3,0.2,0.5,0.3,0.8
			c0,0.1,0.1,0.2,0.1,0.3c0.1,0.4,0.3,0.7,0.4,1.1c0,0,0,0,0,0c0.1,0.5,0.3,1,0.4,1.5c0,0.1,0,0.2,0.1,0.3c0.1,0.5,0.2,1,0.2,1.5
			c0,0.3,0,0.6,0,0.9l-0.5,171.5c0,0.3,0,0.7,0,1c0,0.1,0,0.2,0,0.3c0,0.2-0.1,0.4-0.1,0.6c0,0,0,0.1,0,0.1
			c-0.1,0.3-0.2,0.6-0.3,0.9c0,0.1-0.1,0.2-0.1,0.2c-0.1,0.3-0.3,0.6-0.4,0.9c0,0,0,0,0,0c-0.2,0.2-0.3,0.5-0.5,0.7
			c-0.1,0.1-0.1,0.1-0.2,0.2c-0.2,0.2-0.4,0.4-0.7,0.5l10.6-6.1c0.3-0.1,0.5-0.3,0.7-0.5c0.1-0.1,0.1-0.1,0.2-0.2
			c0.2-0.2,0.4-0.4,0.5-0.7c0,0,0,0,0,0c0.2-0.3,0.3-0.6,0.4-0.9c0-0.1,0.1-0.2,0.1-0.2c0.1-0.3,0.2-0.6,0.3-0.9c0,0,0-0.1,0-0.1
			c0,0,0,0,0,0c0-0.2,0.1-0.4,0.1-0.6C1112.9,547.7,1112.9,547.6,1112.9,547.5z"/>
	</g>
</g>
<g id="_x33_dlogo" class="st0">
	<g id="XMLID_37_" class="st1">
		<path id="XMLID_39_" class="st2" d="M830.8,347.6c4.3,2.5,7.7,7.3,7.7,10.8l-0.1,22l52.6,30.4c10.6,6.1,19.2,18.1,19.2,26.7
			l-0.1,20.5l50.8,29.3c4.3,2.5,7.7,7.3,7.7,10.8l-0.1,33.6c0,3.5-3.5,4.3-7.8,1.8l-101.6-58.7c-4.3-2.5-7.7-7.3-7.7-10.8l0.1-22
			l-59.2-34.2c-10.6-6.1-19.2-18.1-19.2-26.7l0.1-20.5l-44.3-25.6c-4.3-2.5-7.7-7.3-7.7-10.8l0.1-33.6c0-3.5,3.5-4.3,7.8-1.8
			L830.8,347.6z"/>
	</g>
	<path id="XMLID_19_" class="st6" d="M979.3,491.5c0,0,0-0.1,0-0.1c0-0.2,0-0.3-0.1-0.5c0-0.1,0-0.2,0-0.3c0-0.2-0.1-0.4-0.1-0.6
		c0-0.1,0-0.1,0-0.2c0,0,0,0,0,0c0-0.1-0.1-0.3-0.1-0.4c0-0.1-0.1-0.2-0.1-0.4c-0.1-0.1-0.1-0.3-0.2-0.4c-0.1-0.1-0.1-0.2-0.2-0.4
		c-0.1-0.1-0.1-0.3-0.2-0.4c-0.1-0.1-0.1-0.2-0.2-0.4c-0.1-0.1-0.2-0.3-0.2-0.4c-0.1-0.1-0.1-0.2-0.2-0.3c-0.1-0.1-0.2-0.3-0.3-0.4
		c-0.1-0.1-0.2-0.2-0.2-0.3c-0.1-0.1-0.2-0.3-0.3-0.4c-0.1-0.1-0.2-0.2-0.3-0.3c-0.1-0.1-0.2-0.3-0.3-0.4c-0.1-0.1-0.2-0.2-0.3-0.3
		c-0.1-0.1-0.2-0.2-0.3-0.4c-0.1-0.1-0.2-0.2-0.3-0.3c0,0,0,0,0,0c-0.2-0.2-0.5-0.5-0.7-0.7c-0.1-0.1-0.1-0.1-0.2-0.2
		c-0.2-0.2-0.4-0.3-0.6-0.5c-0.1-0.1-0.2-0.1-0.3-0.2c-0.2-0.1-0.3-0.3-0.5-0.4c-0.1-0.1-0.2-0.2-0.3-0.2c-0.2-0.1-0.3-0.2-0.5-0.3
		c0,0-0.1-0.1-0.1-0.1c-0.2-0.1-0.4-0.2-0.6-0.3l-50.8-29.3l0.1-20.5c0-0.3,0-0.6,0-0.9c0-0.2,0-0.4-0.1-0.6c0-0.1,0-0.2,0-0.2
		c-0.1-0.5-0.1-1-0.2-1.5c0-0.1,0-0.2-0.1-0.3c-0.1-0.5-0.2-1-0.4-1.5c0,0,0,0,0-0.1c-0.1-0.3-0.2-0.6-0.3-0.9
		c-0.1-0.3-0.2-0.6-0.3-0.9c-0.1-0.3-0.3-0.6-0.4-0.9c-0.1-0.3-0.2-0.6-0.4-0.9c-0.2-0.3-0.3-0.6-0.5-1c-0.2-0.3-0.3-0.6-0.5-0.9
		c-0.2-0.3-0.4-0.6-0.6-1c-0.2-0.3-0.3-0.6-0.5-0.9c-0.2-0.3-0.4-0.6-0.6-0.9c-0.2-0.3-0.4-0.6-0.6-0.9c-0.2-0.3-0.5-0.6-0.7-0.9
		c-0.2-0.3-0.4-0.6-0.7-0.9c-0.2-0.3-0.5-0.6-0.8-0.9c-0.2-0.3-0.5-0.6-0.7-0.9c-0.3-0.3-0.5-0.6-0.8-0.9c-0.2-0.3-0.5-0.5-0.7-0.8
		c0,0,0,0,0,0c-0.6-0.6-1.2-1.1-1.8-1.7c-0.1-0.1-0.3-0.3-0.4-0.4c-0.5-0.4-0.9-0.8-1.4-1.2c-0.2-0.2-0.5-0.4-0.7-0.6
		c-0.4-0.3-0.8-0.6-1.2-0.9c-0.3-0.2-0.5-0.4-0.8-0.6c-0.4-0.3-0.8-0.6-1.2-0.8c-0.1-0.1-0.2-0.1-0.3-0.2c-0.5-0.3-0.9-0.6-1.4-0.8
		l-52.6-30.4l0.1-22c0-0.1,0-0.2,0-0.4c0,0,0-0.1,0-0.1c0-0.2,0-0.3-0.1-0.5c0-0.1,0-0.2,0-0.3c0-0.2-0.1-0.4-0.1-0.6
		c0-0.1,0-0.1,0-0.2c0,0,0,0,0,0c0-0.1-0.1-0.3-0.1-0.4c0-0.1-0.1-0.2-0.1-0.4c-0.1-0.1-0.1-0.3-0.2-0.4c-0.1-0.1-0.1-0.2-0.2-0.4
		c-0.1-0.1-0.1-0.3-0.2-0.4c-0.1-0.1-0.1-0.2-0.2-0.4c-0.1-0.1-0.2-0.3-0.2-0.4c-0.1-0.1-0.1-0.2-0.2-0.4c-0.1-0.1-0.2-0.3-0.3-0.4
		c-0.1-0.1-0.1-0.2-0.2-0.3c-0.1-0.1-0.2-0.3-0.3-0.4c-0.1-0.1-0.2-0.2-0.2-0.3c-0.1-0.1-0.2-0.3-0.3-0.4c-0.1-0.1-0.2-0.2-0.3-0.3
		c-0.1-0.1-0.2-0.3-0.4-0.4c-0.1-0.1-0.2-0.2-0.3-0.3c0,0,0,0,0,0c-0.2-0.2-0.5-0.5-0.7-0.7c-0.1-0.1-0.1-0.1-0.2-0.2
		c-0.2-0.2-0.4-0.3-0.5-0.5c-0.1-0.1-0.2-0.2-0.3-0.2c-0.2-0.1-0.3-0.3-0.5-0.4c-0.1-0.1-0.2-0.2-0.3-0.2c-0.2-0.1-0.3-0.2-0.5-0.3
		c0,0-0.1-0.1-0.1-0.1c-0.2-0.1-0.4-0.2-0.6-0.3l-101.6-58.7c-0.4-0.2-0.8-0.4-1.2-0.6c-0.1-0.1-0.2-0.1-0.3-0.1
		c-0.3-0.1-0.6-0.2-0.8-0.3c-0.1,0-0.1-0.1-0.2-0.1c0,0-0.1,0-0.1,0c-0.3-0.1-0.7-0.2-1-0.2c0,0,0,0,0,0c-0.3,0-0.6-0.1-0.9,0
		c-0.1,0-0.2,0-0.3,0c-0.2,0-0.4,0-0.6,0.1c-0.1,0-0.2,0-0.2,0.1c-0.2,0.1-0.5,0.2-0.7,0.3l-10.6,6.1c0.2-0.1,0.4-0.2,0.7-0.3
		c0.1,0,0.2,0,0.2-0.1c0.2,0,0.4-0.1,0.6-0.1c0.1,0,0.2,0,0.3,0c0.3,0,0.6,0,0.9,0c0,0,0,0,0,0c0.3,0,0.7,0.1,1,0.2
		c0.1,0,0.2,0.1,0.3,0.1c0.3,0.1,0.5,0.2,0.8,0.3c0.1,0,0.2,0.1,0.3,0.1c0.4,0.2,0.8,0.4,1.2,0.6l101.6,58.7
		c0.2,0.1,0.4,0.3,0.7,0.4c0.2,0.1,0.3,0.2,0.5,0.3c0.1,0.1,0.2,0.2,0.3,0.2c0.2,0.1,0.3,0.2,0.5,0.4c0.1,0.1,0.2,0.2,0.3,0.2
		c0.2,0.2,0.4,0.3,0.5,0.5c0.1,0.1,0.1,0.1,0.2,0.2c0.2,0.2,0.5,0.5,0.7,0.7c0.1,0.1,0.2,0.2,0.3,0.3c0.1,0.1,0.2,0.2,0.3,0.4
		c0.1,0.1,0.2,0.2,0.3,0.3c0.1,0.1,0.2,0.3,0.3,0.4c0.1,0.1,0.2,0.2,0.3,0.3c0.1,0.1,0.2,0.3,0.3,0.4c0.1,0.1,0.2,0.2,0.2,0.3
		c0.1,0.1,0.2,0.3,0.3,0.4c0.1,0.1,0.1,0.2,0.2,0.3c0.1,0.1,0.2,0.3,0.2,0.4c0.1,0.1,0.1,0.2,0.2,0.3c0.1,0.1,0.1,0.3,0.2,0.4
		c0.1,0.1,0.1,0.2,0.2,0.3c0.1,0.1,0.1,0.3,0.2,0.4c0,0.1,0.1,0.2,0.1,0.3c0,0.1,0.1,0.3,0.1,0.4c0,0.1,0,0.1,0.1,0.2
		c0.1,0.2,0.1,0.4,0.1,0.6c0,0.1,0,0.2,0,0.3c0,0.2,0,0.3,0.1,0.5c0,0.2,0,0.3,0,0.5l-0.1,22l52.6,30.4c0.6,0.3,1.1,0.7,1.7,1
		c0.4,0.3,0.8,0.5,1.2,0.8c0.3,0.2,0.5,0.4,0.8,0.6c0.4,0.3,0.8,0.6,1.2,0.9c0.2,0.2,0.5,0.4,0.7,0.6c0.5,0.4,0.9,0.8,1.4,1.2
		c0.1,0.1,0.3,0.3,0.4,0.4c0.6,0.6,1.2,1.1,1.8,1.7c0.3,0.3,0.5,0.5,0.8,0.8c0.3,0.3,0.6,0.6,0.8,0.9c0.2,0.3,0.5,0.6,0.7,0.8
		c0.3,0.3,0.5,0.6,0.8,0.9c0.2,0.3,0.4,0.6,0.6,0.9c0.2,0.3,0.5,0.6,0.7,0.9c0.2,0.3,0.4,0.6,0.6,0.9c0.2,0.3,0.4,0.6,0.6,1
		c0.2,0.3,0.4,0.6,0.5,0.9c0.2,0.3,0.4,0.6,0.6,1c0.2,0.3,0.3,0.6,0.5,0.9c0.2,0.3,0.3,0.6,0.5,1c0.1,0.3,0.3,0.6,0.4,0.9
		c0.1,0.3,0.3,0.6,0.4,1c0.1,0.3,0.2,0.6,0.3,0.9c0.1,0.3,0.2,0.6,0.3,0.9c0.2,0.5,0.3,1,0.4,1.5c0,0.1,0,0.2,0.1,0.3
		c0.1,0.5,0.2,1,0.2,1.5c0,0.1,0,0.2,0,0.2c0.1,0.5,0.1,1,0.1,1.5l-0.1,20.5l50.8,29.3c0.2,0.1,0.4,0.3,0.7,0.4
		c0.2,0.1,0.3,0.2,0.5,0.3c0.1,0.1,0.2,0.2,0.3,0.2c0.2,0.1,0.3,0.3,0.5,0.4c0.1,0.1,0.2,0.1,0.3,0.2c0.2,0.2,0.4,0.3,0.6,0.5
		c0.1,0.1,0.1,0.1,0.2,0.2c0.2,0.2,0.5,0.5,0.7,0.7c0.1,0.1,0.2,0.2,0.3,0.3c0.1,0.1,0.2,0.2,0.3,0.4c0.1,0.1,0.2,0.2,0.3,0.3
		c0.1,0.1,0.2,0.3,0.3,0.4c0.1,0.1,0.2,0.2,0.3,0.3c0.1,0.1,0.2,0.3,0.3,0.4c0.1,0.1,0.2,0.2,0.2,0.3c0.1,0.1,0.2,0.3,0.3,0.4
		c0.1,0.1,0.1,0.2,0.2,0.3c0.1,0.1,0.2,0.3,0.2,0.4c0.1,0.1,0.1,0.2,0.2,0.3c0.1,0.1,0.1,0.3,0.2,0.4c0.1,0.1,0.1,0.2,0.2,0.3
		c0.1,0.1,0.1,0.3,0.2,0.4c0,0.1,0.1,0.2,0.1,0.3c0,0.1,0.1,0.3,0.1,0.4c0,0.1,0,0.1,0.1,0.2c0.1,0.2,0.1,0.4,0.1,0.6
		c0,0.1,0,0.2,0,0.3c0,0.2,0,0.3,0.1,0.5c0,0.2,0,0.3,0,0.5l-0.1,33.6c0,0.3,0,0.6-0.1,0.9c0,0,0,0.1,0,0.1
		c-0.1,0.2-0.1,0.4-0.2,0.6c0,0.1-0.1,0.1-0.1,0.2c-0.1,0.1-0.2,0.3-0.3,0.4c0,0.1-0.1,0.1-0.1,0.2c-0.2,0.2-0.3,0.3-0.5,0.4
		l10.6-6.1c0.2-0.1,0.4-0.3,0.5-0.4c0,0,0.1-0.1,0.1-0.2c0.1-0.1,0.2-0.3,0.3-0.4c0-0.1,0.1-0.1,0.1-0.2c0.1-0.2,0.2-0.4,0.2-0.6
		c0,0,0-0.1,0-0.1c0,0,0,0,0,0c0.1-0.3,0.1-0.6,0.1-0.9l0.1-33.6C979.3,491.8,979.3,491.6,979.3,491.5z"/>
</g>
<g id="background">
	<rect id="XMLID_1_" y="0" class="st7" width="1122" height="782"/>
	<path id="XMLID_3_" class="st8" d="M1122,782H0c245.4-91.1,459.9-197.9,554.3-335.5s93.2-140.9,185.8-250.7
		C902,41.4,946,71.8,1122,0V782z"/>
</g>
<path id="logo" class="st9" d="M150.4,41.4h-9.5v-4.7c0-2-1.6-3.6-3.6-3.6h-9.9V28c0-0.8-0.7-1.5-1.5-1.5h-19
	c-0.8,0-1.5,0.7-1.5,1.5v7.7c0,0.8,0.7,1.5,1.5,1.5h8.3v4.7c0,2,1.6,3.6,3.6,3.6h11.1v5.1c0,0.8,0.7,1.5,1.5,1.5h19
	c0.8,0,1.5-0.7,1.5-1.5v-7.7C151.9,42.1,151.2,41.4,150.4,41.4z"/>
<g id="XMLID_138_">
	<path id="XMLID_462_" class="st9" d="M120.6,235.1c-0.9,2-2.2,3.5-3.8,4.7c-1.7,1.2-3.5,1.8-5.5,1.8c-3.1,0-5.6-1.9-7.4-5.7
		c-1.8-3.8-2.8-9.1-3-15.9l0-4.1c0-4.7,0.4-8.7,1.2-12.2c0.8-3.5,2-6.2,3.5-8c1.5-1.9,3.3-2.8,5.3-2.8c2.9,0,5.2,1.4,6.8,4.1
		c1.6,2.7,2.6,6.7,2.8,12.1h-5.5c-0.2-2.6-0.6-4.5-1.3-5.7c-0.6-1.1-1.6-1.7-2.8-1.7c-1.4,0-2.5,1.2-3.3,3.6
		c-0.8,2.4-1.2,5.9-1.2,10.4v2.9c0,4.7,0.4,8.3,1.2,10.7c0.8,2.4,2.1,3.6,3.8,3.6c1.5,0,2.6-0.7,3.3-2v-7.4h-4v-7.9h9.6V235.1z"/>
	<path id="XMLID_464_" class="st9" d="M132.1,241.6c-2.7,0-4.9-1.6-6.5-4.8c-1.7-3.2-2.5-7.4-2.5-12.6v-0.9c0-3.6,0.3-6.8,1-9.5
		c0.7-2.8,1.6-4.9,2.9-6.4c1.3-1.5,2.8-2.3,4.5-2.3c2.5,0,4.4,1.5,5.8,4.6c1.4,3.1,2.1,7.4,2.1,12.9v4.3h-10.8
		c0.2,2,0.6,3.5,1.3,4.7c0.7,1.1,1.5,1.7,2.6,1.7c1.7,0,3.1-1.2,4-3.6l2.5,5.9c-0.7,1.9-1.6,3.4-2.9,4.5
		C134.9,241.1,133.5,241.6,132.1,241.6z M131.5,213.5c-1.6,0-2.5,2.1-2.8,6.4h5.5v-0.8c0-1.8-0.2-3.1-0.7-4.1
		C133,214,132.4,213.5,131.5,213.5z"/>
	<path id="XMLID_467_" class="st9" d="M148,197v8.8h2.9v7.6H148v16.1c0,1.3,0.1,2.2,0.4,2.8c0.2,0.5,0.7,0.8,1.4,0.8
		c0.5,0,1-0.1,1.4-0.2v7.9c-1,0.6-2,0.9-3.1,0.9c-1.9,0-3.3-0.9-4.2-2.7c-0.9-1.8-1.3-4.5-1.3-8.1v-17.5h-2.2v-7.6h2.2V197H148z"/>
	<path id="XMLID_469_" class="st9" d="M173.7,228.4c0-1.7-0.3-3-0.9-3.9c-0.6-0.9-1.6-1.9-3.1-2.9c-1.5-1-2.7-2-3.6-2.9
		c-3.1-3-4.6-7.2-4.6-12.4c0-2.6,0.4-4.9,1.1-7c0.8-2,1.8-3.6,3.2-4.7c1.4-1.1,3-1.7,4.7-1.7c1.7,0,3.2,0.6,4.6,1.8
		c1.3,1.2,2.4,2.9,3.1,5.2c0.7,2.2,1.1,4.8,1.1,7.7h-5.7c0-1.9-0.3-3.4-0.9-4.5c-0.6-1.1-1.4-1.6-2.4-1.6c-1,0-1.8,0.5-2.4,1.4
		c-0.6,0.9-0.9,2-0.9,3.4c0,1.2,0.3,2.3,1,3.3c0.6,1,1.8,2,3.4,3.1c1.6,1.1,3,2.2,4,3.4c2.5,3,3.8,7,3.8,12.2c0,4.1-0.8,7.4-2.3,9.8
		c-1.6,2.4-3.7,3.6-6.4,3.6c-1.9,0-3.6-0.7-5.2-2.1c-1.5-1.4-2.7-3.3-3.5-5.7c-0.8-2.4-1.2-5.2-1.2-8.3h5.7c0,2.5,0.3,4.4,1,5.6
		c0.7,1.2,1.7,1.8,3.2,1.8c0.9,0,1.7-0.4,2.2-1.2C173.5,231,173.7,229.8,173.7,228.4z"/>
	<path id="XMLID_471_" class="st9" d="M190.6,241.6c-2.7,0-4.9-1.6-6.5-4.8c-1.7-3.2-2.5-7.4-2.5-12.6v-0.9c0-3.6,0.3-6.8,1-9.5
		c0.7-2.8,1.6-4.9,2.9-6.4c1.3-1.5,2.8-2.3,4.5-2.3c2.5,0,4.4,1.5,5.8,4.6c1.4,3.1,2.1,7.4,2.1,12.9v4.3h-10.8
		c0.2,2,0.6,3.5,1.3,4.7c0.7,1.1,1.5,1.7,2.6,1.7c1.7,0,3.1-1.2,4-3.6l2.5,5.9c-0.7,1.9-1.6,3.4-2.9,4.5
		C193.3,241.1,192,241.6,190.6,241.6z M189.9,213.5c-1.6,0-2.5,2.1-2.8,6.4h5.5v-0.8c0-1.8-0.2-3.1-0.7-4.1
		C191.5,214,190.8,213.5,189.9,213.5z"/>
	<path id="XMLID_474_" class="st9" d="M207.5,233.1c0.8,0,1.4-0.4,1.8-1.3c0.4-0.8,0.6-2,0.6-3.5h5.1c0,3.9-0.7,7-2.1,9.5
		s-3.1,3.7-5.3,3.7c-2.5,0-4.6-1.6-6-4.8c-1.5-3.2-2.2-7.7-2.2-13.4V223c0-3.6,0.3-6.7,1-9.4c0.7-2.7,1.6-4.8,2.8-6.3
		c1.2-1.5,2.7-2.2,4.4-2.2c2.3,0,4.1,1.3,5.4,3.8c1.3,2.5,2,6,2,10.3h-5.1c0-1.8-0.2-3.2-0.7-4.2c-0.4-1-1-1.5-1.8-1.5
		c-1.4,0-2.2,1.8-2.5,5.4c-0.1,1.2-0.1,2.7-0.1,4.8c0,3.5,0.2,6,0.6,7.4C206,232.5,206.6,233.1,207.5,233.1z"/>
	<path id="XMLID_476_" class="st9" d="M227.8,237.2c-1.2,3-2.7,4.5-4.7,4.5c-1.9,0-3.4-1.1-4.4-3.4s-1.5-5.5-1.5-9.7v-22.8h5.5v22.9
		c0,3,0.7,4.5,2.2,4.5c1.3,0,2.1-0.9,2.7-2.7v-24.7h5.5V241H228L227.8,237.2z"/>
	<path id="XMLID_478_" class="st9" d="M246.7,215.7l-1.8-0.3c-1.7,0-2.8,1.1-3.3,3.3V241h-5.5v-35.2h5.1l0.2,4.5
		c0.9-3.5,2.2-5.2,3.8-5.2c0.6,0,1.1,0.1,1.5,0.4L246.7,215.7z"/>
	<path id="XMLID_480_" class="st9" d="M256.8,241.6c-2.7,0-4.9-1.6-6.5-4.8c-1.7-3.2-2.5-7.4-2.5-12.6v-0.9c0-3.6,0.3-6.8,1-9.5
		c0.7-2.8,1.6-4.9,2.9-6.4c1.3-1.5,2.8-2.3,4.5-2.3c2.5,0,4.4,1.5,5.8,4.6c1.4,3.1,2.1,7.4,2.1,12.9v4.3h-10.8
		c0.2,2,0.6,3.5,1.3,4.7c0.7,1.1,1.5,1.7,2.6,1.7c1.7,0,3.1-1.2,4-3.6l2.5,5.9c-0.7,1.9-1.6,3.4-2.9,4.5
		C259.6,241.1,258.2,241.6,256.8,241.6z M256.2,213.5c-1.6,0-2.5,2.1-2.8,6.4h5.5v-0.8c0-1.8-0.2-3.1-0.7-4.1
		C257.7,214,257.1,213.5,256.2,213.5z"/>
	<path id="XMLID_483_" class="st9" d="M292.4,202.4h-7.1V241h-5.7v-38.6h-6.9v-8.8h19.7V202.4z"/>
	<path id="XMLID_485_" class="st9" d="M290.5,223c0-3.5,0.3-6.7,1-9.4c0.7-2.7,1.7-4.9,2.9-6.3c1.3-1.5,2.8-2.2,4.5-2.2
		c2.6,0,4.7,1.6,6.2,4.9c1.5,3.3,2.3,7.7,2.3,13.3v0.4c0,5.5-0.8,9.9-2.3,13.1c-1.5,3.2-3.6,4.8-6.2,4.8c-2.5,0-4.5-1.5-6-4.5
		c-1.5-3-2.3-7.1-2.4-12.2L290.5,223z M296,223.7c0,3.3,0.3,5.6,0.8,7.2c0.5,1.5,1.3,2.3,2.3,2.3c1.9,0,2.9-3,3-9V223
		c0-6.3-1-9.5-3-9.5c-1.8,0-2.8,2.7-3,8.2L296,223.7z"/>
	<path id="XMLID_488_" class="st9" d="M309.1,223.1c0-5.6,0.6-10,1.8-13.2c1.2-3.2,2.9-4.8,5-4.8c1.6,0,2.9,1.2,4,3.7v-17.9h5.5v50
		h-4.9l-0.3-3.8c-1.1,3-2.5,4.4-4.3,4.4c-2.1,0-3.7-1.6-5-4.8C309.7,233.6,309.1,229,309.1,223.1z M314.6,223.8
		c0,6.3,0.9,9.4,2.7,9.4c1.2,0,2.1-1,2.6-3.1v-13.4c-0.5-2.1-1.3-3.1-2.6-3.1c-1.7,0-2.6,2.7-2.7,8.2L314.6,223.8z"/>
	<path id="XMLID_491_" class="st9" d="M338.3,241c-0.2-0.7-0.4-1.8-0.5-3.2c-1,2.5-2.4,3.8-4.2,3.8c-1.7,0-3.1-1-4.2-3
		c-1.2-2-1.7-4.5-1.7-7.6c0-3.8,0.7-6.7,2.1-8.7c1.4-2,3.4-2.9,6.1-2.9h1.7v-1.9c0-3.3-0.7-4.9-2.1-4.9c-1.3,0-1.9,1.3-1.9,3.9h-5.5
		c0-3.4,0.7-6.2,2.2-8.3s3.3-3.2,5.5-3.2s4,1.1,5.3,3.3c1.3,2.2,2,5.2,2,9V233c0,3.2,0.3,5.7,0.7,7.4v0.6H338.3z M334.9,233.8
		c0.7,0,1.2-0.3,1.7-0.9c0.4-0.6,0.8-1.2,1-2v-5.6H336c-1.9,0-2.8,1.7-2.8,5.1c0,1,0.2,1.8,0.5,2.4
		C334,233.5,334.4,233.8,334.9,233.8z"/>
	<path id="XMLID_494_" class="st9" d="M352.8,225.6l2.9-19.9h5.8l-7.1,41.1l-0.3,1.5c-1,4.6-2.8,6.8-5.4,6.8c-0.7,0-1.5-0.2-2.3-0.6
		v-7.8h0.7c0.8,0,1.4-0.2,1.8-0.7c0.4-0.4,0.7-1.2,0.9-2.4l0.4-2.3l-6.1-35.6h5.8L352.8,225.6z"/>
</g>
<rect id="XMLID_140_" x="44.4" y="302.1" class="st10" width="312" height="100"/>
<g id="XMLID_142_">
	<path id="XMLID_191_" class="st11" d="M105.3,285.8h5.6v2.2h-8.7v-11.7h3.2V285.8z"/>
	<path id="XMLID_193_" class="st11" d="M111.7,283.6c0-0.9,0.2-1.6,0.6-2.3c0.4-0.7,0.9-1.2,1.6-1.6c0.7-0.4,1.6-0.5,2.5-0.5
		c1.5,0,2.6,0.4,3.5,1.2s1.3,1.9,1.3,3.3v0.1c0,1.4-0.4,2.4-1.3,3.2c-0.9,0.8-2,1.2-3.5,1.2c-1.4,0-2.5-0.4-3.4-1.1
		c-0.8-0.7-1.3-1.7-1.4-3L111.7,283.6z M114.7,283.7c0,0.8,0.1,1.4,0.4,1.8c0.3,0.4,0.7,0.6,1.3,0.6c1.1,0,1.6-0.7,1.7-2.2v-0.3
		c0-1.6-0.6-2.3-1.7-2.3c-1,0-1.6,0.7-1.7,2L114.7,283.7z"/>
	<path id="XMLID_196_" class="st11" d="M128.4,281.7l-1-0.1c-1,0-1.6,0.3-1.9,0.8v5.5h-3.1v-8.7h2.9l0.1,1.1
		c0.5-0.9,1.2-1.3,2.2-1.3c0.3,0,0.6,0,0.9,0.1L128.4,281.7z"/>
	<path id="XMLID_198_" class="st11" d="M134.1,288.1c-1.5,0-2.7-0.4-3.7-1.2c-0.9-0.8-1.4-1.8-1.4-3.1v-0.2c0-0.9,0.2-1.7,0.6-2.4
		c0.4-0.7,0.9-1.2,1.6-1.6c0.7-0.4,1.6-0.6,2.5-0.6c1.4,0,2.5,0.4,3.3,1.1c0.8,0.8,1.2,1.8,1.2,3.2v1.1h-6.1
		c0.1,0.5,0.3,0.9,0.7,1.1c0.4,0.3,0.8,0.4,1.4,0.4c1,0,1.7-0.3,2.3-0.9l1.4,1.5c-0.4,0.5-0.9,0.8-1.6,1.1
		C135.7,288,134.9,288.1,134.1,288.1z M133.8,281.2c-0.9,0-1.4,0.5-1.6,1.6h3.1v-0.2c0-0.4-0.1-0.8-0.4-1
		C134.6,281.3,134.3,281.2,133.8,281.2z"/>
	<path id="XMLID_201_" class="st11" d="M142.4,279.3l0.1,1c0.7-0.8,1.6-1.2,2.8-1.2c1.2,0,2.1,0.4,2.5,1.3c0.7-0.9,1.6-1.3,2.9-1.3
		c2,0,3,1.1,3.1,3.2v5.7h-3.1v-5.5c0-0.4-0.1-0.8-0.3-1c-0.2-0.2-0.5-0.3-0.9-0.3c-0.6,0-1.1,0.2-1.4,0.7l0,0.1v5.9h-3.1v-5.5
		c0-0.5-0.1-0.8-0.2-1c-0.2-0.2-0.5-0.3-0.9-0.3c-0.6,0-1,0.2-1.3,0.7v6h-3.1v-8.7H142.4z"/>
	<path id="XMLID_203_" class="st11" d="M163.7,288h-3.2v-11.7h3.2V288z"/>
	<path id="XMLID_205_" class="st11" d="M174.9,283.7c0,1.3-0.3,2.4-1,3.2c-0.7,0.8-1.6,1.2-2.8,1.2c-0.9,0-1.6-0.3-2.2-0.9v4.1h-3.1
		v-12h2.9l0.1,0.8c0.6-0.6,1.4-1,2.3-1c1.2,0,2.2,0.4,2.8,1.2s1,1.9,1,3.3V283.7z M171.8,283.5c0-1.5-0.5-2.3-1.5-2.3
		c-0.7,0-1.2,0.2-1.5,0.7v3.4c0.3,0.5,0.8,0.7,1.5,0.7c1,0,1.5-0.7,1.5-2.2V283.5z"/>
	<path id="XMLID_208_" class="st11" d="M181.4,285.5c0-0.2-0.1-0.4-0.4-0.6c-0.3-0.1-0.8-0.3-1.6-0.4s-1.4-0.3-1.9-0.6
		c-0.5-0.2-0.9-0.5-1.1-0.9c-0.3-0.3-0.4-0.7-0.4-1.2c0-0.8,0.4-1.5,1.1-2c0.7-0.5,1.7-0.8,2.9-0.8c1.3,0,2.3,0.3,3.1,0.8
		s1.2,1.2,1.2,2h-3.1c0-0.7-0.4-1-1.2-1c-0.3,0-0.6,0.1-0.8,0.2c-0.2,0.2-0.3,0.4-0.3,0.6c0,0.2,0.1,0.4,0.4,0.6s0.7,0.3,1.3,0.4
		c0.6,0.1,1.1,0.2,1.5,0.3c1.5,0.4,2.2,1.3,2.2,2.4c0,0.8-0.4,1.4-1.2,1.9c-0.8,0.5-1.8,0.7-3.1,0.7c-0.8,0-1.6-0.1-2.3-0.4
		c-0.7-0.3-1.2-0.6-1.5-1.1c-0.4-0.5-0.6-0.9-0.6-1.5h2.9c0,0.4,0.2,0.7,0.5,0.9c0.3,0.2,0.7,0.3,1.1,0.3c0.4,0,0.7-0.1,0.9-0.2
		C181.3,286,181.4,285.8,181.4,285.5z"/>
	<path id="XMLID_210_" class="st11" d="M191.6,287c-0.6,0.7-1.5,1.1-2.6,1.1c-1.1,0-1.9-0.3-2.4-0.8s-0.8-1.4-0.8-2.4v-5.6h3.1v5.6
		c0,0.7,0.4,1.1,1.2,1.1c0.7,0,1.2-0.2,1.5-0.7v-6.1h3.1v8.7h-2.9L191.6,287z"/>
	<path id="XMLID_212_" class="st11" d="M199.2,279.3l0.1,1c0.7-0.8,1.6-1.2,2.8-1.2c1.2,0,2.1,0.4,2.5,1.3c0.7-0.9,1.6-1.3,2.9-1.3
		c2,0,3,1.1,3.1,3.2v5.7h-3.1v-5.5c0-0.4-0.1-0.8-0.3-1c-0.2-0.2-0.5-0.3-0.9-0.3c-0.6,0-1.1,0.2-1.4,0.7l0,0.1v5.9h-3.1v-5.5
		c0-0.5-0.1-0.8-0.2-1c-0.2-0.2-0.5-0.3-0.9-0.3c-0.6,0-1,0.2-1.3,0.7v6h-3.1v-8.7H199.2z"/>
	<path id="XMLID_214_" class="st11" d="M216.9,277.1c0-0.4,0.2-0.7,0.5-0.9c0.3-0.2,0.7-0.4,1.2-0.4c0.5,0,0.9,0.1,1.2,0.4
		s0.5,0.6,0.5,0.9s-0.2,0.7-0.5,0.9s-0.7,0.4-1.2,0.4c-0.5,0-0.9-0.1-1.2-0.4C217,277.8,216.9,277.4,216.9,277.1z M220.1,288h-3.1
		v-8.7h3.1V288z"/>
	<path id="XMLID_217_" class="st11" d="M227.2,285.5c0-0.2-0.1-0.4-0.4-0.6c-0.3-0.1-0.8-0.3-1.6-0.4c-0.8-0.1-1.4-0.3-1.9-0.6
		c-0.5-0.2-0.9-0.5-1.1-0.9s-0.4-0.7-0.4-1.2c0-0.8,0.4-1.5,1.1-2c0.7-0.5,1.7-0.8,2.9-0.8c1.3,0,2.3,0.3,3.1,0.8s1.2,1.2,1.2,2
		h-3.1c0-0.7-0.4-1-1.2-1c-0.3,0-0.6,0.1-0.8,0.2c-0.2,0.2-0.3,0.4-0.3,0.6c0,0.2,0.1,0.4,0.4,0.6c0.3,0.1,0.7,0.3,1.3,0.4
		c0.6,0.1,1.1,0.2,1.5,0.3c1.5,0.4,2.2,1.3,2.2,2.4c0,0.8-0.4,1.4-1.2,1.9c-0.8,0.5-1.8,0.7-3.1,0.7c-0.8,0-1.6-0.1-2.3-0.4
		c-0.7-0.3-1.2-0.6-1.5-1.1c-0.4-0.5-0.6-0.9-0.6-1.5h2.9c0,0.4,0.2,0.7,0.5,0.9c0.3,0.2,0.7,0.3,1.1,0.3c0.4,0,0.7-0.1,0.9-0.2
		S227.2,285.8,227.2,285.5z"/>
	<path id="XMLID_219_" class="st11" d="M241.3,285.5c0-0.2-0.1-0.4-0.4-0.6c-0.3-0.1-0.8-0.3-1.6-0.4c-0.8-0.1-1.4-0.3-1.9-0.6
		c-0.5-0.2-0.9-0.5-1.1-0.9s-0.4-0.7-0.4-1.2c0-0.8,0.4-1.5,1.1-2c0.7-0.5,1.7-0.8,2.9-0.8c1.3,0,2.3,0.3,3.1,0.8s1.2,1.2,1.2,2
		h-3.1c0-0.7-0.4-1-1.2-1c-0.3,0-0.6,0.1-0.8,0.2c-0.2,0.2-0.3,0.4-0.3,0.6c0,0.2,0.1,0.4,0.4,0.6c0.3,0.1,0.7,0.3,1.3,0.4
		c0.6,0.1,1.1,0.2,1.5,0.3c1.5,0.4,2.2,1.3,2.2,2.4c0,0.8-0.4,1.4-1.2,1.9c-0.8,0.5-1.8,0.7-3.1,0.7c-0.8,0-1.6-0.1-2.3-0.4
		c-0.7-0.3-1.2-0.6-1.5-1.1c-0.4-0.5-0.6-0.9-0.6-1.5h2.9c0,0.4,0.2,0.7,0.5,0.9c0.3,0.2,0.7,0.3,1.1,0.3c0.4,0,0.7-0.1,0.9-0.2
		S241.3,285.8,241.3,285.5z"/>
	<path id="XMLID_221_" class="st11" d="M245.7,277.1c0-0.4,0.2-0.7,0.5-0.9c0.3-0.2,0.7-0.4,1.2-0.4c0.5,0,0.9,0.1,1.2,0.4
		s0.5,0.6,0.5,0.9s-0.2,0.7-0.5,0.9s-0.7,0.4-1.2,0.4c-0.5,0-0.9-0.1-1.2-0.4C245.9,277.8,245.7,277.4,245.7,277.1z M248.9,288h-3.1
		v-8.7h3.1V288z"/>
	<path id="XMLID_224_" class="st11" d="M253.7,279.3l0.1,1c0.7-0.8,1.6-1.2,2.8-1.2c1.2,0,2.1,0.4,2.5,1.3c0.7-0.9,1.6-1.3,2.9-1.3
		c2,0,3,1.1,3.1,3.2v5.7H262v-5.5c0-0.4-0.1-0.8-0.3-1s-0.5-0.3-0.9-0.3c-0.6,0-1.1,0.2-1.4,0.7l0,0.1v5.9h-3.1v-5.5
		c0-0.5-0.1-0.8-0.2-1c-0.2-0.2-0.5-0.3-0.9-0.3c-0.6,0-1,0.2-1.3,0.7v6h-3.1v-8.7H253.7z"/>
	<path id="XMLID_226_" class="st11" d="M276,283.7c0,1.3-0.3,2.4-1,3.2c-0.7,0.8-1.6,1.2-2.8,1.2c-0.9,0-1.6-0.3-2.2-0.9v4.1h-3.1
		v-12h2.9l0.1,0.8c0.6-0.6,1.4-1,2.3-1c1.2,0,2.2,0.4,2.8,1.2s1,1.9,1,3.3V283.7z M272.9,283.5c0-1.5-0.5-2.3-1.5-2.3
		c-0.7,0-1.2,0.2-1.5,0.7v3.4c0.3,0.5,0.8,0.7,1.5,0.7c1,0,1.5-0.7,1.5-2.2V283.5z"/>
	<path id="XMLID_229_" class="st11" d="M280.6,288h-3.1v-12.3h3.1V288z"/>
	<path id="XMLID_231_" class="st11" d="M286.4,284.2l1.6-4.9h3.3l-4,10.1l-0.2,0.4c-0.6,1.1-1.6,1.7-3,1.7c-0.4,0-0.8-0.1-1.3-0.2
		v-1.9h0.4c0.4,0,0.8-0.1,1-0.2c0.2-0.1,0.4-0.3,0.5-0.6l0.2-0.6l-3.4-8.8h3.3L286.4,284.2z"/>
	<path id="XMLID_233_" class="st11" d="M296.3,283.6c0-1.4,0.3-2.5,1-3.3c0.7-0.8,1.6-1.2,2.8-1.2c0.9,0,1.6,0.3,2.2,0.9v-4.4h3.1
		V288h-2.8l-0.2-0.9c-0.6,0.7-1.4,1.1-2.4,1.1c-1.2,0-2.1-0.4-2.8-1.2C296.7,286.2,296.3,285,296.3,283.6z M299.4,283.7
		c0,1.5,0.5,2.3,1.5,2.3c0.7,0,1.2-0.3,1.5-0.8V282c-0.3-0.5-0.8-0.8-1.4-0.8c-0.9,0-1.5,0.7-1.5,2L299.4,283.7z"/>
	<path id="XMLID_236_" class="st11" d="M313,287c-0.6,0.7-1.5,1.1-2.6,1.1c-1.1,0-1.9-0.3-2.4-0.8c-0.6-0.6-0.8-1.4-0.8-2.4v-5.6
		h3.1v5.6c0,0.7,0.4,1.1,1.2,1.1c0.7,0,1.2-0.2,1.5-0.7v-6.1h3.1v8.7h-2.9L313,287z"/>
	<path id="XMLID_238_" class="st11" d="M320.6,279.3l0.1,1c0.7-0.8,1.6-1.2,2.8-1.2c1.2,0,2.1,0.4,2.5,1.3c0.7-0.9,1.6-1.3,2.9-1.3
		c2,0,3,1.1,3.1,3.2v5.7h-3.1v-5.5c0-0.4-0.1-0.8-0.3-1s-0.5-0.3-0.9-0.3c-0.6,0-1.1,0.2-1.4,0.7l0,0.1v5.9h-3.1v-5.5
		c0-0.5-0.1-0.8-0.2-1c-0.2-0.2-0.5-0.3-0.9-0.3c-0.6,0-1,0.2-1.3,0.7v6h-3.1v-8.7H320.6z"/>
	<path id="XMLID_240_" class="st11" d="M336.6,279.3l0.1,1c0.7-0.8,1.6-1.2,2.8-1.2c1.2,0,2.1,0.4,2.5,1.3c0.7-0.9,1.6-1.3,2.9-1.3
		c2,0,3,1.1,3.1,3.2v5.7h-3.1v-5.5c0-0.4-0.1-0.8-0.3-1s-0.5-0.3-0.9-0.3c-0.6,0-1.1,0.2-1.4,0.7l0,0.1v5.9h-3.1v-5.5
		c0-0.5-0.1-0.8-0.2-1c-0.2-0.2-0.5-0.3-0.9-0.3c-0.6,0-1,0.2-1.3,0.7v6h-3.1v-8.7H336.6z"/>
	<path id="XMLID_242_" class="st11" d="M353.6,284.2l1.6-4.9h3.3l-4,10.1l-0.2,0.4c-0.6,1.1-1.6,1.7-3,1.7c-0.4,0-0.8-0.1-1.3-0.2
		v-1.9h0.4c0.4,0,0.8-0.1,1-0.2c0.2-0.1,0.4-0.3,0.5-0.6l0.2-0.6l-3.4-8.8h3.3L353.6,284.2z"/>
	<path id="XMLID_244_" class="st11" d="M367.5,277.1v2.2h1.6v1.9h-1.6v4c0,0.3,0.1,0.6,0.2,0.7c0.1,0.1,0.4,0.2,0.8,0.2
		c0.3,0,0.6,0,0.8,0v1.9c-0.6,0.2-1.1,0.2-1.7,0.2c-1.1,0-1.8-0.2-2.3-0.7c-0.5-0.4-0.8-1.1-0.8-2v-4.3h-1.3v-1.9h1.3v-2.2H367.5z"
		/>
	<path id="XMLID_246_" class="st11" d="M375.1,288.1c-1.5,0-2.7-0.4-3.7-1.2c-0.9-0.8-1.4-1.8-1.4-3.1v-0.2c0-0.9,0.2-1.7,0.6-2.4
		c0.4-0.7,0.9-1.2,1.6-1.6c0.7-0.4,1.6-0.6,2.5-0.6c1.4,0,2.5,0.4,3.3,1.1c0.8,0.8,1.2,1.8,1.2,3.2v1.1h-6.1
		c0.1,0.5,0.3,0.9,0.7,1.1c0.4,0.3,0.8,0.4,1.4,0.4c1,0,1.7-0.3,2.3-0.9l1.4,1.5c-0.4,0.5-0.9,0.8-1.6,1.1
		C376.7,288,375.9,288.1,375.1,288.1z M374.8,281.2c-0.9,0-1.4,0.5-1.6,1.6h3.1v-0.2c0-0.4-0.1-0.8-0.4-1
		C375.6,281.3,375.3,281.2,374.8,281.2z"/>
	<path id="XMLID_249_" class="st11" d="M384.5,281.7l1.4-2.4h3.2l-2.6,4.2l2.7,4.5H386l-1.5-2.6L383,288h-3.2l2.7-4.5l-2.6-4.2h3.2
		L384.5,281.7z"/>
	<path id="XMLID_251_" class="st11" d="M393.6,277.1v2.2h1.6v1.9h-1.6v4c0,0.3,0.1,0.6,0.2,0.7c0.1,0.1,0.4,0.2,0.8,0.2
		c0.3,0,0.6,0,0.8,0v1.9c-0.6,0.2-1.1,0.2-1.7,0.2c-1.1,0-1.8-0.2-2.3-0.7c-0.5-0.4-0.8-1.1-0.8-2v-4.3h-1.3v-1.9h1.3v-2.2H393.6z"
		/>
	<path id="XMLID_253_" class="st11" d="M400.7,283.6c0-0.9,0.2-1.6,0.6-2.3c0.4-0.7,0.9-1.2,1.6-1.6c0.7-0.4,1.6-0.5,2.5-0.5
		c1.5,0,2.6,0.4,3.5,1.2c0.8,0.8,1.3,1.9,1.3,3.3v0.1c0,1.4-0.4,2.4-1.3,3.2c-0.9,0.8-2,1.2-3.5,1.2c-1.4,0-2.5-0.4-3.4-1.1
		c-0.8-0.7-1.3-1.7-1.4-3L400.7,283.6z M403.8,283.7c0,0.8,0.1,1.4,0.4,1.8c0.3,0.4,0.7,0.6,1.3,0.6c1.1,0,1.6-0.7,1.7-2.2v-0.3
		c0-1.6-0.6-2.3-1.7-2.3c-1,0-1.6,0.7-1.7,2L403.8,283.7z"/>
	<path id="XMLID_256_" class="st11" d="M412.2,288v-6.8h-1.4v-1.9h1.4v-0.7c0-1,0.3-1.8,1-2.3c0.7-0.5,1.6-0.8,2.8-0.8
		c0.4,0,0.9,0.1,1.4,0.2l0,2c-0.2,0-0.4-0.1-0.8-0.1c-0.9,0-1.4,0.4-1.4,1.1v0.7h1.9v1.9h-1.9v6.8H412.2z"/>
	<path id="XMLID_258_" class="st11" d="M426.5,277.1v2.2h1.6v1.9h-1.6v4c0,0.3,0.1,0.6,0.2,0.7c0.1,0.1,0.4,0.2,0.8,0.2
		c0.3,0,0.6,0,0.8,0v1.9c-0.6,0.2-1.1,0.2-1.7,0.2c-1.1,0-1.8-0.2-2.3-0.7c-0.5-0.4-0.8-1.1-0.8-2v-4.3h-1.3v-1.9h1.3v-2.2H426.5z"
		/>
	<path id="XMLID_260_" class="st11" d="M432.3,280.2c0.7-0.7,1.5-1.1,2.5-1.1c1.1,0,1.9,0.3,2.5,0.9c0.6,0.6,0.8,1.4,0.8,2.5v5.5
		H435v-5.4c0-0.5-0.1-0.8-0.3-1c-0.2-0.2-0.6-0.3-1.1-0.3c-0.6,0-1.1,0.2-1.3,0.5v6.2h-3.1v-12.3h3.1V280.2z"/>
	<path id="XMLID_262_" class="st11" d="M444.5,288.1c-1.5,0-2.7-0.4-3.7-1.2c-0.9-0.8-1.4-1.8-1.4-3.1v-0.2c0-0.9,0.2-1.7,0.6-2.4
		c0.4-0.7,0.9-1.2,1.6-1.6c0.7-0.4,1.6-0.6,2.5-0.6c1.4,0,2.5,0.4,3.3,1.1c0.8,0.8,1.2,1.8,1.2,3.2v1.1h-6.1
		c0.1,0.5,0.3,0.9,0.7,1.1c0.4,0.3,0.8,0.4,1.4,0.4c1,0,1.7-0.3,2.3-0.9l1.4,1.5c-0.4,0.5-0.9,0.8-1.6,1.1
		C446.1,288,445.4,288.1,444.5,288.1z M444.2,281.2c-0.9,0-1.4,0.5-1.6,1.6h3.1v-0.2c0-0.4-0.1-0.8-0.4-1
		C445.1,281.3,444.7,281.2,444.2,281.2z"/>
	<path id="XMLID_265_" class="st11" d="M463.7,283.7c0,1.3-0.3,2.4-1,3.2c-0.7,0.8-1.6,1.2-2.8,1.2c-0.9,0-1.6-0.3-2.2-0.9v4.1h-3.1
		v-12h2.9l0.1,0.8c0.6-0.6,1.4-1,2.3-1c1.2,0,2.2,0.4,2.8,1.2s1,1.9,1,3.3V283.7z M460.6,283.5c0-1.5-0.5-2.3-1.5-2.3
		c-0.7,0-1.2,0.2-1.5,0.7v3.4c0.3,0.5,0.8,0.7,1.5,0.7c1,0,1.5-0.7,1.5-2.2V283.5z"/>
	<path id="XMLID_268_" class="st11" d="M471,281.7l-1-0.1c-1,0-1.6,0.3-1.9,0.8v5.5H465v-8.7h2.9l0.1,1.1c0.5-0.9,1.2-1.3,2.2-1.3
		c0.3,0,0.6,0,0.9,0.1L471,281.7z"/>
	<path id="XMLID_270_" class="st11" d="M472.1,277.1c0-0.4,0.2-0.7,0.5-0.9c0.3-0.2,0.7-0.4,1.2-0.4c0.5,0,0.9,0.1,1.2,0.4
		s0.5,0.6,0.5,0.9s-0.2,0.7-0.5,0.9s-0.7,0.4-1.2,0.4c-0.5,0-0.9-0.1-1.2-0.4C472.2,277.8,472.1,277.4,472.1,277.1z M475.3,288h-3.1
		v-8.7h3.1V288z"/>
	<path id="XMLID_273_" class="st11" d="M480,279.3l0.1,1c0.7-0.8,1.6-1.2,2.8-1.2c1,0,1.8,0.3,2.3,0.8s0.8,1.4,0.8,2.4v5.6h-3.1
		v-5.5c0-0.4-0.1-0.8-0.3-1c-0.2-0.2-0.6-0.3-1.1-0.3c-0.6,0-1,0.2-1.3,0.6v6.1h-3.1v-8.7H480z"/>
	<path id="XMLID_275_" class="st11" d="M491.2,277.1v2.2h1.6v1.9h-1.6v4c0,0.3,0.1,0.6,0.2,0.7c0.1,0.1,0.4,0.2,0.8,0.2
		c0.3,0,0.6,0,0.8,0v1.9c-0.6,0.2-1.1,0.2-1.7,0.2c-1.1,0-1.8-0.2-2.3-0.7c-0.5-0.4-0.8-1.1-0.8-2v-4.3h-1.3v-1.9h1.3v-2.2H491.2z"
		/>
	<path id="XMLID_277_" class="st11" d="M494,277.1c0-0.4,0.2-0.7,0.5-0.9c0.3-0.2,0.7-0.4,1.2-0.4c0.5,0,0.9,0.1,1.2,0.4
		s0.5,0.6,0.5,0.9s-0.2,0.7-0.5,0.9s-0.7,0.4-1.2,0.4c-0.5,0-0.9-0.1-1.2-0.4C494.2,277.8,494,277.4,494,277.1z M497.3,288h-3.1
		v-8.7h3.1V288z"/>
	<path id="XMLID_280_" class="st11" d="M502,279.3l0.1,1c0.7-0.8,1.6-1.2,2.8-1.2c1,0,1.8,0.3,2.3,0.8s0.8,1.4,0.8,2.4v5.6h-3.1
		v-5.5c0-0.4-0.1-0.8-0.3-1c-0.2-0.2-0.6-0.3-1.1-0.3c-0.6,0-1,0.2-1.3,0.6v6.1h-3.1v-8.7H502z"/>
	<path id="XMLID_282_" class="st11" d="M509.3,283.6c0-0.9,0.2-1.7,0.5-2.3s0.8-1.2,1.4-1.6c0.6-0.4,1.3-0.5,2.1-0.5
		c1,0,1.8,0.3,2.4,0.9l0.1-0.8h2.8v8.4c0,0.8-0.2,1.4-0.6,2c-0.4,0.6-1,1-1.7,1.3c-0.8,0.3-1.6,0.5-2.7,0.5c-0.7,0-1.4-0.1-2.1-0.4
		c-0.7-0.2-1.2-0.6-1.5-0.9l1.3-1.6c0.6,0.6,1.3,0.9,2.3,0.9c1.4,0,2-0.6,2-1.8v-0.3c-0.6,0.6-1.3,0.9-2.2,0.9
		c-1.2,0-2.2-0.4-2.9-1.2C509.7,286.1,509.3,285,509.3,283.6L509.3,283.6z M512.4,283.7c0,0.7,0.2,1.3,0.5,1.7
		c0.3,0.4,0.7,0.6,1.3,0.6c0.7,0,1.1-0.2,1.4-0.6v-3.7c-0.3-0.4-0.8-0.6-1.4-0.6c-0.5,0-1,0.2-1.3,0.6
		C512.5,282.3,512.4,282.9,512.4,283.7z"/>
	<path id="XMLID_285_" class="st11" d="M107.5,307.7c-0.1-0.2-0.2-0.4-0.3-0.8c-0.6,0.6-1.4,0.9-2.4,0.9c-0.9,0-1.7-0.2-2.4-0.7
		c-0.6-0.5-1-1.1-1-1.9c0-0.9,0.4-1.7,1.2-2.1s1.9-0.7,3.4-0.7h0.9v-0.5c0-0.8-0.4-1.2-1.2-1.2c-0.7,0-1.1,0.3-1.1,1h-3.1
		c0-0.8,0.4-1.5,1.2-2c0.8-0.5,1.8-0.8,3.1-0.8c1.3,0,2.2,0.3,3,0.8c0.7,0.5,1.1,1.3,1.1,2.2v3.8c0,0.8,0.2,1.4,0.4,1.8v0.1H107.5z
		 M105.6,305.9c0.4,0,0.7-0.1,0.9-0.2c0.3-0.1,0.4-0.3,0.5-0.5v-1.4h-0.9c-1.1,0-1.6,0.4-1.6,1.3c0,0.2,0.1,0.4,0.3,0.6
		S105.3,305.9,105.6,305.9z"/>
	<path id="XMLID_288_" class="st11" d="M114.6,299l0.1,1c0.7-0.8,1.6-1.2,2.8-1.2c1,0,1.8,0.3,2.3,0.8c0.5,0.5,0.8,1.4,0.8,2.4v5.6
		h-3.1v-5.5c0-0.4-0.1-0.8-0.3-1c-0.2-0.2-0.6-0.3-1.1-0.3c-0.6,0-1,0.2-1.3,0.6v6.1h-3.1V299H114.6z"/>
	<path id="XMLID_290_" class="st11" d="M121.9,303.3c0-1.4,0.3-2.5,1-3.3c0.7-0.8,1.6-1.2,2.8-1.2c0.9,0,1.6,0.3,2.2,0.9v-4.4h3.1
		v12.3h-2.8l-0.2-0.9c-0.6,0.7-1.4,1.1-2.4,1.1c-1.2,0-2.1-0.4-2.8-1.2C122.3,305.9,121.9,304.8,121.9,303.3z M125,303.5
		c0,1.5,0.5,2.3,1.5,2.3c0.7,0,1.2-0.3,1.5-0.8v-3.3c-0.3-0.5-0.8-0.8-1.4-0.8c-0.9,0-1.5,0.7-1.5,2L125,303.5z"/>
	<path id="XMLID_293_" class="st11" d="M141,296.9v2.2h1.6v1.9H141v4c0,0.3,0.1,0.6,0.2,0.7c0.1,0.1,0.4,0.2,0.8,0.2
		c0.3,0,0.6,0,0.8,0v1.9c-0.6,0.2-1.1,0.2-1.7,0.2c-1.1,0-1.8-0.2-2.3-0.7c-0.5-0.4-0.8-1.1-0.8-2v-4.3h-1.3V299h1.3v-2.2H141z"/>
	<path id="XMLID_295_" class="st11" d="M147.7,303.9l1.6-4.9h3.3l-4,10.1l-0.2,0.4c-0.6,1.1-1.6,1.7-3,1.7c-0.4,0-0.8-0.1-1.3-0.2
		v-1.9h0.4c0.4,0,0.8-0.1,1-0.2c0.2-0.1,0.4-0.3,0.5-0.6l0.2-0.6l-3.4-8.8h3.3L147.7,303.9z"/>
	<path id="XMLID_297_" class="st11" d="M162.6,303.4c0,1.3-0.3,2.4-1,3.2s-1.6,1.2-2.8,1.2c-0.9,0-1.6-0.3-2.2-0.9v4.1h-3.1v-12h2.9
		l0.1,0.8c0.6-0.6,1.4-1,2.3-1c1.2,0,2.2,0.4,2.8,1.2c0.7,0.8,1,1.9,1,3.3V303.4z M159.5,303.3c0-1.5-0.5-2.3-1.5-2.3
		c-0.7,0-1.2,0.2-1.5,0.7v3.4c0.3,0.5,0.8,0.7,1.5,0.7c1,0,1.5-0.7,1.5-2.2V303.3z"/>
	<path id="XMLID_300_" class="st11" d="M168.7,307.9c-1.5,0-2.7-0.4-3.7-1.2c-0.9-0.8-1.4-1.8-1.4-3.1v-0.2c0-0.9,0.2-1.7,0.6-2.4
		c0.4-0.7,0.9-1.2,1.6-1.6c0.7-0.4,1.6-0.6,2.5-0.6c1.4,0,2.5,0.4,3.3,1.1c0.8,0.8,1.2,1.8,1.2,3.2v1.1h-6.1
		c0.1,0.5,0.3,0.9,0.7,1.1c0.4,0.3,0.8,0.4,1.4,0.4c1,0,1.7-0.3,2.3-0.9l1.4,1.5c-0.4,0.5-0.9,0.8-1.6,1.1
		C170.2,307.7,169.5,307.9,168.7,307.9z M168.3,301c-0.9,0-1.4,0.5-1.6,1.6h3.1v-0.2c0-0.4-0.1-0.8-0.4-1
		C169.2,301.1,168.8,301,168.3,301z"/>
	<path id="XMLID_303_" class="st11" d="M179.2,305.3c0-0.2-0.1-0.4-0.4-0.6c-0.3-0.1-0.8-0.3-1.6-0.4s-1.4-0.3-1.9-0.6
		s-0.9-0.5-1.1-0.9c-0.3-0.3-0.4-0.7-0.4-1.2c0-0.8,0.4-1.5,1.1-2c0.7-0.5,1.7-0.8,2.9-0.8c1.3,0,2.3,0.3,3.1,0.8s1.2,1.2,1.2,2
		h-3.1c0-0.7-0.4-1-1.2-1c-0.3,0-0.6,0.1-0.8,0.2s-0.3,0.4-0.3,0.6c0,0.2,0.1,0.4,0.4,0.6c0.3,0.1,0.7,0.3,1.3,0.4
		c0.6,0.1,1.1,0.2,1.5,0.3c1.5,0.4,2.2,1.3,2.2,2.4c0,0.8-0.4,1.4-1.2,1.9c-0.8,0.5-1.8,0.7-3.1,0.7c-0.8,0-1.6-0.1-2.3-0.4
		c-0.7-0.3-1.2-0.6-1.5-1.1c-0.4-0.5-0.6-0.9-0.6-1.5h2.9c0,0.4,0.2,0.7,0.5,0.9c0.3,0.2,0.7,0.3,1.1,0.3c0.4,0,0.7-0.1,0.9-0.2
		S179.2,305.5,179.2,305.3z"/>
	<path id="XMLID_305_" class="st11" d="M188.3,307.9c-1.5,0-2.7-0.4-3.7-1.2c-0.9-0.8-1.4-1.8-1.4-3.1v-0.2c0-0.9,0.2-1.7,0.6-2.4
		c0.4-0.7,0.9-1.2,1.6-1.6c0.7-0.4,1.6-0.6,2.5-0.6c1.4,0,2.5,0.4,3.3,1.1c0.8,0.8,1.2,1.8,1.2,3.2v1.1h-6.1
		c0.1,0.5,0.3,0.9,0.7,1.1c0.4,0.3,0.8,0.4,1.4,0.4c1,0,1.7-0.3,2.3-0.9l1.4,1.5c-0.4,0.5-0.9,0.8-1.6,1.1
		C189.9,307.7,189.1,307.9,188.3,307.9z M188,301c-0.9,0-1.4,0.5-1.6,1.6h3.1v-0.2c0-0.4-0.1-0.8-0.4-1
		C188.8,301.1,188.5,301,188,301z"/>
	<path id="XMLID_308_" class="st11" d="M197.3,296.9v2.2h1.6v1.9h-1.6v4c0,0.3,0.1,0.6,0.2,0.7c0.1,0.1,0.4,0.2,0.8,0.2
		c0.3,0,0.6,0,0.8,0v1.9c-0.6,0.2-1.1,0.2-1.7,0.2c-1.1,0-1.8-0.2-2.3-0.7c-0.5-0.4-0.8-1.1-0.8-2v-4.3H193V299h1.3v-2.2H197.3z"/>
	<path id="XMLID_310_" class="st11" d="M203.7,296.9v2.2h1.6v1.9h-1.6v4c0,0.3,0.1,0.6,0.2,0.7c0.1,0.1,0.4,0.2,0.8,0.2
		c0.3,0,0.6,0,0.8,0v1.9c-0.6,0.2-1.1,0.2-1.7,0.2c-1.1,0-1.8-0.2-2.3-0.7c-0.5-0.4-0.8-1.1-0.8-2v-4.3h-1.3V299h1.3v-2.2H203.7z"/>
	<path id="XMLID_312_" class="st11" d="M206.5,296.8c0-0.4,0.2-0.7,0.5-0.9c0.3-0.2,0.7-0.4,1.2-0.4c0.5,0,0.9,0.1,1.2,0.4
		c0.3,0.2,0.5,0.6,0.5,0.9c0,0.4-0.2,0.7-0.5,0.9s-0.7,0.4-1.2,0.4c-0.5,0-0.9-0.1-1.2-0.4C206.6,297.5,206.5,297.2,206.5,296.8z
		 M209.7,307.7h-3.1V299h3.1V307.7z"/>
	<path id="XMLID_315_" class="st11" d="M214.4,299l0.1,1c0.7-0.8,1.6-1.2,2.8-1.2c1,0,1.8,0.3,2.3,0.8c0.5,0.5,0.8,1.4,0.8,2.4v5.6
		h-3.1v-5.5c0-0.4-0.1-0.8-0.3-1s-0.6-0.3-1.1-0.3c-0.6,0-1,0.2-1.3,0.6v6.1h-3.1V299H214.4z"/>
	<path id="XMLID_317_" class="st11" d="M221.7,303.3c0-0.9,0.2-1.7,0.5-2.3c0.3-0.7,0.8-1.2,1.4-1.6c0.6-0.4,1.3-0.5,2.1-0.5
		c1,0,1.8,0.3,2.4,0.9l0.1-0.8h2.8v8.4c0,0.8-0.2,1.4-0.6,2c-0.4,0.6-1,1-1.7,1.3c-0.8,0.3-1.6,0.5-2.7,0.5c-0.7,0-1.4-0.1-2.1-0.4
		c-0.7-0.2-1.2-0.6-1.5-0.9l1.3-1.6c0.6,0.6,1.3,0.9,2.3,0.9c1.4,0,2-0.6,2-1.8V307c-0.6,0.6-1.3,0.9-2.2,0.9
		c-1.2,0-2.2-0.4-2.9-1.2C222.1,305.8,221.7,304.8,221.7,303.3L221.7,303.3z M224.8,303.5c0,0.7,0.2,1.3,0.5,1.7
		c0.3,0.4,0.7,0.6,1.3,0.6c0.7,0,1.1-0.2,1.4-0.6v-3.7c-0.3-0.4-0.8-0.6-1.4-0.6c-0.5,0-1,0.2-1.3,0.6S224.8,302.7,224.8,303.5z"/>
	<path id="XMLID_320_" class="st11" d="M237.4,296.8c0-0.4,0.2-0.7,0.5-0.9c0.3-0.2,0.7-0.4,1.2-0.4c0.5,0,0.9,0.1,1.2,0.4
		c0.3,0.2,0.5,0.6,0.5,0.9c0,0.4-0.2,0.7-0.5,0.9s-0.7,0.4-1.2,0.4c-0.5,0-0.9-0.1-1.2-0.4C237.5,297.5,237.4,297.2,237.4,296.8z
		 M240.6,307.7h-3.1V299h3.1V307.7z"/>
	<path id="XMLID_323_" class="st11" d="M245.3,299l0.1,1c0.7-0.8,1.6-1.2,2.8-1.2c1,0,1.8,0.3,2.3,0.8c0.5,0.5,0.8,1.4,0.8,2.4v5.6
		h-3.1v-5.5c0-0.4-0.1-0.8-0.3-1c-0.2-0.2-0.6-0.3-1.1-0.3c-0.6,0-1,0.2-1.3,0.6v6.1h-3.1V299H245.3z"/>
	<path id="XMLID_325_" class="st11" d="M252.6,303.3c0-1.4,0.3-2.5,1-3.3c0.7-0.8,1.6-1.2,2.8-1.2c0.9,0,1.6,0.3,2.2,0.9v-4.4h3.1
		v12.3H259l-0.2-0.9c-0.6,0.7-1.4,1.1-2.4,1.1c-1.2,0-2.1-0.4-2.8-1.2C253,305.9,252.6,304.8,252.6,303.3z M255.7,303.5
		c0,1.5,0.5,2.3,1.5,2.3c0.7,0,1.2-0.3,1.5-0.8v-3.3c-0.3-0.5-0.8-0.8-1.4-0.8c-0.9,0-1.5,0.7-1.5,2L255.7,303.5z"/>
	<path id="XMLID_328_" class="st11" d="M269.3,306.8c-0.6,0.7-1.5,1.1-2.6,1.1c-1.1,0-1.9-0.3-2.4-0.8c-0.6-0.6-0.8-1.4-0.8-2.4V299
		h3.1v5.6c0,0.7,0.4,1.1,1.2,1.1c0.7,0,1.2-0.2,1.5-0.7V299h3.1v8.7h-2.9L269.3,306.8z"/>
	<path id="XMLID_330_" class="st11" d="M279.1,305.3c0-0.2-0.1-0.4-0.4-0.6c-0.3-0.1-0.8-0.3-1.6-0.4s-1.4-0.3-1.9-0.6
		c-0.5-0.2-0.9-0.5-1.1-0.9c-0.3-0.3-0.4-0.7-0.4-1.2c0-0.8,0.4-1.5,1.1-2c0.7-0.5,1.7-0.8,2.9-0.8c1.3,0,2.3,0.3,3.1,0.8
		s1.2,1.2,1.2,2H279c0-0.7-0.4-1-1.2-1c-0.3,0-0.6,0.1-0.8,0.2c-0.2,0.2-0.3,0.4-0.3,0.6c0,0.2,0.1,0.4,0.4,0.6
		c0.3,0.1,0.7,0.3,1.3,0.4c0.6,0.1,1.1,0.2,1.5,0.3c1.5,0.4,2.2,1.3,2.2,2.4c0,0.8-0.4,1.4-1.2,1.9c-0.8,0.5-1.8,0.7-3.1,0.7
		c-0.8,0-1.6-0.1-2.3-0.4c-0.7-0.3-1.2-0.6-1.5-1.1c-0.4-0.5-0.6-0.9-0.6-1.5h2.9c0,0.4,0.2,0.7,0.5,0.9c0.3,0.2,0.7,0.3,1.1,0.3
		c0.4,0,0.7-0.1,0.9-0.2C279,305.7,279.1,305.5,279.1,305.3z"/>
	<path id="XMLID_332_" class="st11" d="M287.1,296.9v2.2h1.6v1.9h-1.6v4c0,0.3,0.1,0.6,0.2,0.7c0.1,0.1,0.4,0.2,0.8,0.2
		c0.3,0,0.6,0,0.8,0v1.9c-0.6,0.2-1.1,0.2-1.7,0.2c-1.1,0-1.8-0.2-2.3-0.7c-0.5-0.4-0.8-1.1-0.8-2v-4.3h-1.3V299h1.3v-2.2H287.1z"/>
	<path id="XMLID_334_" class="st11" d="M295.8,301.5l-1-0.1c-1,0-1.6,0.3-1.9,0.8v5.5h-3.1V299h2.9l0.1,1.1c0.5-0.9,1.2-1.3,2.2-1.3
		c0.3,0,0.6,0,0.9,0.1L295.8,301.5z"/>
	<path id="XMLID_336_" class="st11" d="M301,303.9l1.6-4.9h3.3l-4,10.1l-0.2,0.4c-0.6,1.1-1.6,1.7-3,1.7c-0.4,0-0.8-0.1-1.3-0.2
		v-1.9h0.4c0.4,0,0.8-0.1,1-0.2c0.2-0.1,0.4-0.3,0.5-0.6l0.2-0.6l-3.4-8.8h3.3L301,303.9z"/>
	<path id="XMLID_338_" class="st11" d="M307.1,305.1c0.5,0,0.9,0.1,1.2,0.4c0.3,0.3,0.5,0.6,0.5,1s-0.2,0.7-0.5,1
		c-0.3,0.3-0.7,0.4-1.2,0.4c-0.5,0-0.9-0.1-1.2-0.4c-0.3-0.3-0.5-0.6-0.5-1s0.2-0.7,0.5-1C306.2,305.2,306.6,305.1,307.1,305.1z"/>
	<path id="XMLID_340_" class="st11" d="M318.8,305.5h5.6v2.2h-8.7V296h3.2V305.5z"/>
	<path id="XMLID_342_" class="st11" d="M325.2,303.3c0-0.9,0.2-1.6,0.6-2.3c0.4-0.7,0.9-1.2,1.6-1.6c0.7-0.4,1.6-0.5,2.5-0.5
		c1.5,0,2.6,0.4,3.5,1.2c0.8,0.8,1.3,1.9,1.3,3.3v0.1c0,1.4-0.4,2.4-1.3,3.2c-0.9,0.8-2,1.2-3.5,1.2c-1.4,0-2.5-0.4-3.4-1.1
		c-0.8-0.7-1.3-1.7-1.4-3L325.2,303.3z M328.2,303.5c0,0.8,0.1,1.4,0.4,1.8s0.7,0.6,1.3,0.6c1.1,0,1.6-0.7,1.7-2.2v-0.3
		c0-1.6-0.6-2.3-1.7-2.3c-1,0-1.6,0.7-1.7,2L328.2,303.5z"/>
	<path id="XMLID_345_" class="st11" d="M342,301.5l-1-0.1c-1,0-1.6,0.3-1.9,0.8v5.5H336V299h2.9l0.1,1.1c0.5-0.9,1.2-1.3,2.2-1.3
		c0.3,0,0.6,0,0.9,0.1L342,301.5z"/>
	<path id="XMLID_347_" class="st11" d="M347.6,307.9c-1.5,0-2.7-0.4-3.7-1.2c-0.9-0.8-1.4-1.8-1.4-3.1v-0.2c0-0.9,0.2-1.7,0.6-2.4
		c0.4-0.7,0.9-1.2,1.6-1.6c0.7-0.4,1.6-0.6,2.5-0.6c1.4,0,2.5,0.4,3.3,1.1c0.8,0.8,1.2,1.8,1.2,3.2v1.1h-6.1
		c0.1,0.5,0.3,0.9,0.7,1.1c0.4,0.3,0.8,0.4,1.4,0.4c1,0,1.7-0.3,2.3-0.9l1.4,1.5c-0.4,0.5-0.9,0.8-1.6,1.1
		C349.2,307.7,348.4,307.9,347.6,307.9z M347.3,301c-0.9,0-1.4,0.5-1.6,1.6h3.1v-0.2c0-0.4-0.1-0.8-0.4-1
		C348.1,301.1,347.8,301,347.3,301z"/>
	<path id="XMLID_350_" class="st11" d="M355.9,299l0.1,1c0.7-0.8,1.6-1.2,2.8-1.2c1.2,0,2.1,0.4,2.5,1.3c0.7-0.9,1.6-1.3,2.9-1.3
		c2,0,3,1.1,3.1,3.2v5.7h-3.1v-5.5c0-0.4-0.1-0.8-0.3-1s-0.5-0.3-0.9-0.3c-0.6,0-1.1,0.2-1.4,0.7l0,0.1v5.9h-3.1v-5.5
		c0-0.5-0.1-0.8-0.2-1c-0.2-0.2-0.5-0.3-0.9-0.3c-0.6,0-1,0.2-1.3,0.7v6H353V299H355.9z"/>
	<path id="XMLID_352_" class="st11" d="M377.2,307.7H374V296h3.2V307.7z"/>
	<path id="XMLID_354_" class="st11" d="M388.4,303.4c0,1.3-0.3,2.4-1,3.2s-1.6,1.2-2.8,1.2c-0.9,0-1.6-0.3-2.2-0.9v4.1h-3.1v-12h2.9
		l0.1,0.8c0.6-0.6,1.4-1,2.3-1c1.2,0,2.2,0.4,2.8,1.2c0.7,0.8,1,1.9,1,3.3V303.4z M385.3,303.3c0-1.5-0.5-2.3-1.5-2.3
		c-0.7,0-1.2,0.2-1.5,0.7v3.4c0.3,0.5,0.8,0.7,1.5,0.7c1,0,1.5-0.7,1.5-2.2V303.3z"/>
	<path id="XMLID_357_" class="st11" d="M394.9,305.3c0-0.2-0.1-0.4-0.4-0.6c-0.3-0.1-0.8-0.3-1.6-0.4c-0.8-0.1-1.4-0.3-1.9-0.6
		c-0.5-0.2-0.9-0.5-1.1-0.9c-0.3-0.3-0.4-0.7-0.4-1.2c0-0.8,0.4-1.5,1.1-2c0.7-0.5,1.7-0.8,2.9-0.8c1.3,0,2.3,0.3,3.1,0.8
		s1.2,1.2,1.2,2h-3.1c0-0.7-0.4-1-1.2-1c-0.3,0-0.6,0.1-0.8,0.2c-0.2,0.2-0.3,0.4-0.3,0.6c0,0.2,0.1,0.4,0.4,0.6s0.7,0.3,1.3,0.4
		c0.6,0.1,1.1,0.2,1.5,0.3c1.5,0.4,2.2,1.3,2.2,2.4c0,0.8-0.4,1.4-1.2,1.9c-0.8,0.5-1.8,0.7-3.1,0.7c-0.8,0-1.6-0.1-2.3-0.4
		c-0.7-0.3-1.2-0.6-1.5-1.1c-0.4-0.5-0.6-0.9-0.6-1.5h2.9c0,0.4,0.2,0.7,0.5,0.9c0.3,0.2,0.7,0.3,1.1,0.3c0.4,0,0.7-0.1,0.9-0.2
		S394.9,305.5,394.9,305.3z"/>
	<path id="XMLID_359_" class="st11" d="M405.1,306.8c-0.6,0.7-1.5,1.1-2.6,1.1c-1.1,0-1.9-0.3-2.4-0.8c-0.6-0.6-0.8-1.4-0.8-2.4V299
		h3.1v5.6c0,0.7,0.4,1.1,1.2,1.1c0.7,0,1.2-0.2,1.5-0.7V299h3.1v8.7h-2.9L405.1,306.8z"/>
	<path id="XMLID_361_" class="st11" d="M412.7,299l0.1,1c0.7-0.8,1.6-1.2,2.8-1.2c1.2,0,2.1,0.4,2.5,1.3c0.7-0.9,1.6-1.3,2.9-1.3
		c2,0,3,1.1,3.1,3.2v5.7H421v-5.5c0-0.4-0.1-0.8-0.3-1c-0.2-0.2-0.5-0.3-0.9-0.3c-0.6,0-1.1,0.2-1.4,0.7l0,0.1v5.9h-3.1v-5.5
		c0-0.5-0.1-0.8-0.2-1c-0.2-0.2-0.5-0.3-0.9-0.3c-0.6,0-1,0.2-1.3,0.7v6h-3.1V299H412.7z"/>
	<path id="XMLID_363_" class="st11" d="M433.4,300c0.7-0.7,1.5-1.1,2.5-1.1c1.1,0,1.9,0.3,2.5,0.9s0.8,1.4,0.8,2.5v5.5h-3.1v-5.4
		c0-0.5-0.1-0.8-0.3-1c-0.2-0.2-0.6-0.3-1.1-0.3c-0.6,0-1.1,0.2-1.3,0.5v6.2h-3.1v-12.3h3.1V300z"/>
	<path id="XMLID_365_" class="st11" d="M446.5,307.7c-0.1-0.2-0.2-0.4-0.3-0.8c-0.6,0.6-1.4,0.9-2.4,0.9c-0.9,0-1.7-0.2-2.4-0.7
		c-0.6-0.5-1-1.1-1-1.9c0-0.9,0.4-1.7,1.2-2.1s1.9-0.7,3.4-0.7h0.9v-0.5c0-0.8-0.4-1.2-1.2-1.2c-0.7,0-1.1,0.3-1.1,1h-3.1
		c0-0.8,0.4-1.5,1.2-2c0.8-0.5,1.8-0.8,3.1-0.8c1.3,0,2.2,0.3,3,0.8c0.7,0.5,1.1,1.3,1.1,2.2v3.8c0,0.8,0.2,1.4,0.4,1.8v0.1H446.5z
		 M444.5,305.9c0.4,0,0.7-0.1,0.9-0.2c0.3-0.1,0.4-0.3,0.5-0.5v-1.4h-0.9c-1.1,0-1.6,0.4-1.6,1.3c0,0.2,0.1,0.4,0.3,0.6
		C444,305.9,444.3,305.9,444.5,305.9z"/>
	<path id="XMLID_368_" class="st11" d="M455.9,305.3c0-0.2-0.1-0.4-0.4-0.6c-0.3-0.1-0.8-0.3-1.6-0.4s-1.4-0.3-1.9-0.6
		c-0.5-0.2-0.9-0.5-1.1-0.9c-0.3-0.3-0.4-0.7-0.4-1.2c0-0.8,0.4-1.5,1.1-2c0.7-0.5,1.7-0.8,2.9-0.8c1.3,0,2.3,0.3,3.1,0.8
		s1.2,1.2,1.2,2h-3.1c0-0.7-0.4-1-1.2-1c-0.3,0-0.6,0.1-0.8,0.2c-0.2,0.2-0.3,0.4-0.3,0.6c0,0.2,0.1,0.4,0.4,0.6s0.7,0.3,1.3,0.4
		c0.6,0.1,1.1,0.2,1.5,0.3c1.5,0.4,2.2,1.3,2.2,2.4c0,0.8-0.4,1.4-1.2,1.9c-0.8,0.5-1.8,0.7-3.1,0.7c-0.8,0-1.6-0.1-2.3-0.4
		c-0.7-0.3-1.2-0.6-1.5-1.1c-0.4-0.5-0.6-0.9-0.6-1.5h2.9c0,0.4,0.2,0.7,0.5,0.9c0.3,0.2,0.7,0.3,1.1,0.3c0.4,0,0.7-0.1,0.9-0.2
		S455.9,305.5,455.9,305.3z"/>
	<path id="XMLID_370_" class="st11" d="M474.1,303.4c0,1.4-0.3,2.5-1,3.3c-0.7,0.8-1.6,1.1-2.8,1.1c-1,0-1.8-0.4-2.4-1.1l-0.1,0.9
		H465v-12.3h3.1v4.3c0.6-0.6,1.3-0.9,2.2-0.9c1.2,0,2.2,0.4,2.8,1.2c0.7,0.8,1,1.9,1,3.3V303.4z M471,303.3c0-0.8-0.1-1.4-0.4-1.8
		c-0.3-0.4-0.6-0.5-1.2-0.5c-0.7,0-1.2,0.2-1.4,0.7v3.4c0.3,0.5,0.7,0.7,1.5,0.7c0.7,0,1.2-0.3,1.4-0.9C471,304.6,471,304,471,303.3
		z"/>
	<path id="XMLID_373_" class="st11" d="M480.2,307.9c-1.5,0-2.7-0.4-3.7-1.2c-0.9-0.8-1.4-1.8-1.4-3.1v-0.2c0-0.9,0.2-1.7,0.6-2.4
		c0.4-0.7,0.9-1.2,1.6-1.6c0.7-0.4,1.6-0.6,2.5-0.6c1.4,0,2.5,0.4,3.3,1.1c0.8,0.8,1.2,1.8,1.2,3.2v1.1h-6.1
		c0.1,0.5,0.3,0.9,0.7,1.1c0.4,0.3,0.8,0.4,1.4,0.4c1,0,1.7-0.3,2.3-0.9l1.4,1.5c-0.4,0.5-0.9,0.8-1.6,1.1
		C481.7,307.7,481,307.9,480.2,307.9z M479.8,301c-0.9,0-1.4,0.5-1.6,1.6h3.1v-0.2c0-0.4-0.1-0.8-0.4-1
		C480.7,301.1,480.3,301,479.8,301z"/>
	<path id="XMLID_376_" class="st11" d="M490.3,307.9c-1.5,0-2.7-0.4-3.7-1.2c-0.9-0.8-1.4-1.8-1.4-3.1v-0.2c0-0.9,0.2-1.7,0.6-2.4
		c0.4-0.7,0.9-1.2,1.6-1.6c0.7-0.4,1.6-0.6,2.5-0.6c1.4,0,2.5,0.4,3.3,1.1c0.8,0.8,1.2,1.8,1.2,3.2v1.1h-6.1
		c0.1,0.5,0.3,0.9,0.7,1.1c0.4,0.3,0.8,0.4,1.4,0.4c1,0,1.7-0.3,2.3-0.9l1.4,1.5c-0.4,0.5-0.9,0.8-1.6,1.1
		C491.9,307.7,491.1,307.9,490.3,307.9z M490,301c-0.9,0-1.4,0.5-1.6,1.6h3.1v-0.2c0-0.4-0.1-0.8-0.4-1
		C490.8,301.1,490.5,301,490,301z"/>
	<path id="XMLID_379_" class="st11" d="M498.5,299l0.1,1c0.7-0.8,1.6-1.2,2.8-1.2c1,0,1.8,0.3,2.3,0.8c0.5,0.5,0.8,1.4,0.8,2.4v5.6
		h-3.1v-5.5c0-0.4-0.1-0.8-0.3-1s-0.6-0.3-1.1-0.3c-0.6,0-1,0.2-1.3,0.6v6.1h-3.1V299H498.5z"/>
	<path id="XMLID_381_" class="st11" d="M107.1,325c0-0.2-0.1-0.4-0.4-0.6c-0.3-0.1-0.8-0.3-1.6-0.4c-0.8-0.1-1.4-0.3-1.9-0.6
		c-0.5-0.2-0.9-0.5-1.1-0.9c-0.3-0.3-0.4-0.7-0.4-1.2c0-0.8,0.4-1.5,1.1-2c0.7-0.5,1.7-0.8,2.9-0.8c1.3,0,2.3,0.3,3.1,0.8
		c0.8,0.5,1.2,1.2,1.2,2H107c0-0.7-0.4-1-1.2-1c-0.3,0-0.6,0.1-0.8,0.2s-0.3,0.4-0.3,0.6c0,0.2,0.1,0.4,0.4,0.6s0.7,0.3,1.3,0.4
		c0.6,0.1,1.1,0.2,1.5,0.3c1.5,0.4,2.2,1.3,2.2,2.4c0,0.8-0.4,1.4-1.2,1.9c-0.8,0.5-1.8,0.7-3.1,0.7c-0.8,0-1.6-0.1-2.3-0.4
		c-0.7-0.3-1.2-0.6-1.5-1.1c-0.4-0.5-0.6-0.9-0.6-1.5h2.9c0,0.4,0.2,0.7,0.5,0.9c0.3,0.2,0.7,0.3,1.1,0.3c0.4,0,0.7-0.1,0.9-0.2
		C107,325.4,107.1,325.2,107.1,325z"/>
	<path id="XMLID_383_" class="st11" d="M115.1,316.6v2.2h1.6v1.9h-1.6v4c0,0.3,0.1,0.6,0.2,0.7c0.1,0.1,0.4,0.2,0.8,0.2
		c0.3,0,0.6,0,0.8,0v1.9c-0.6,0.2-1.1,0.2-1.7,0.2c-1.1,0-1.8-0.2-2.3-0.7s-0.8-1.1-0.8-2v-4.3h-1.3v-1.9h1.3v-2.2H115.1z"/>
	<path id="XMLID_385_" class="st11" d="M123.4,327.4c-0.1-0.2-0.2-0.4-0.3-0.8c-0.6,0.6-1.4,0.9-2.4,0.9c-0.9,0-1.7-0.2-2.4-0.7
		c-0.6-0.5-1-1.1-1-1.9c0-0.9,0.4-1.7,1.2-2.1c0.8-0.5,1.9-0.7,3.4-0.7h0.9v-0.5c0-0.8-0.4-1.2-1.2-1.2c-0.7,0-1.1,0.3-1.1,1h-3.1
		c0-0.8,0.4-1.5,1.2-2c0.8-0.5,1.8-0.8,3.1-0.8c1.3,0,2.2,0.3,3,0.8c0.7,0.5,1.1,1.3,1.1,2.2v3.8c0,0.8,0.2,1.4,0.4,1.8v0.1H123.4z
		 M121.5,325.7c0.4,0,0.7-0.1,0.9-0.2c0.3-0.1,0.4-0.3,0.5-0.5v-1.4h-0.9c-1.1,0-1.6,0.4-1.6,1.3c0,0.2,0.1,0.4,0.3,0.6
		C121,325.6,121.2,325.7,121.5,325.7z"/>
	<path id="XMLID_388_" class="st11" d="M130.6,318.8l0.1,1c0.7-0.8,1.6-1.2,2.8-1.2c1,0,1.8,0.3,2.3,0.8s0.8,1.4,0.8,2.4v5.6h-3.1
		V322c0-0.4-0.1-0.8-0.3-1c-0.2-0.2-0.6-0.3-1.1-0.3c-0.6,0-1,0.2-1.3,0.6v6.1h-3.1v-8.7H130.6z"/>
	<path id="XMLID_390_" class="st11" d="M137.9,323c0-1.4,0.3-2.5,1-3.3c0.7-0.8,1.6-1.2,2.8-1.2c0.9,0,1.6,0.3,2.2,0.9v-4.4h3.1
		v12.3h-2.8l-0.2-0.9c-0.6,0.7-1.4,1.1-2.4,1.1c-1.2,0-2.1-0.4-2.8-1.2S137.9,324.5,137.9,323z M140.9,323.2c0,1.5,0.5,2.3,1.5,2.3
		c0.7,0,1.2-0.3,1.5-0.8v-3.3c-0.3-0.5-0.8-0.8-1.4-0.8c-0.9,0-1.5,0.7-1.5,2L140.9,323.2z"/>
	<path id="XMLID_393_" class="st11" d="M154.2,327.4c-0.1-0.2-0.2-0.4-0.3-0.8c-0.6,0.6-1.4,0.9-2.4,0.9c-0.9,0-1.7-0.2-2.4-0.7
		c-0.6-0.5-1-1.1-1-1.9c0-0.9,0.4-1.7,1.2-2.1c0.8-0.5,1.9-0.7,3.4-0.7h0.9v-0.5c0-0.8-0.4-1.2-1.2-1.2c-0.7,0-1.1,0.3-1.1,1h-3.1
		c0-0.8,0.4-1.5,1.2-2c0.8-0.5,1.8-0.8,3.1-0.8c1.3,0,2.2,0.3,3,0.8c0.7,0.5,1.1,1.3,1.1,2.2v3.8c0,0.8,0.2,1.4,0.4,1.8v0.1H154.2z
		 M152.3,325.7c0.4,0,0.7-0.1,0.9-0.2c0.3-0.1,0.4-0.3,0.5-0.5v-1.4h-0.9c-1.1,0-1.6,0.4-1.6,1.3c0,0.2,0.1,0.4,0.3,0.6
		C151.8,325.6,152,325.7,152.3,325.7z"/>
	<path id="XMLID_396_" class="st11" d="M164.5,321.2l-1-0.1c-1,0-1.6,0.3-1.9,0.8v5.5h-3.1v-8.7h2.9l0.1,1.1
		c0.5-0.9,1.2-1.3,2.2-1.3c0.3,0,0.6,0,0.9,0.1L164.5,321.2z"/>
	<path id="XMLID_398_" class="st11" d="M165.1,323c0-1.4,0.3-2.5,1-3.3c0.7-0.8,1.6-1.2,2.8-1.2c0.9,0,1.6,0.3,2.2,0.9v-4.4h3.1
		v12.3h-2.8l-0.2-0.9c-0.6,0.7-1.4,1.1-2.4,1.1c-1.2,0-2.1-0.4-2.8-1.2C165.4,325.6,165.1,324.5,165.1,323z M168.1,323.2
		c0,1.5,0.5,2.3,1.5,2.3c0.7,0,1.2-0.3,1.5-0.8v-3.3c-0.3-0.5-0.8-0.8-1.4-0.8c-0.9,0-1.5,0.7-1.5,2L168.1,323.2z"/>
	<path id="XMLID_401_" class="st11" d="M180.2,323c0-1.4,0.3-2.5,1-3.3c0.7-0.8,1.6-1.2,2.8-1.2c0.9,0,1.6,0.3,2.2,0.9v-4.4h3.1
		v12.3h-2.8l-0.2-0.9c-0.6,0.7-1.4,1.1-2.4,1.1c-1.2,0-2.1-0.4-2.8-1.2S180.2,324.5,180.2,323z M183.2,323.2c0,1.5,0.5,2.3,1.5,2.3
		c0.7,0,1.2-0.3,1.5-0.8v-3.3c-0.3-0.5-0.8-0.8-1.4-0.8c-0.9,0-1.5,0.7-1.5,2L183.2,323.2z"/>
	<path id="XMLID_404_" class="st11" d="M196.9,326.5c-0.6,0.7-1.5,1.1-2.6,1.1c-1.1,0-1.9-0.3-2.4-0.8c-0.6-0.6-0.8-1.4-0.8-2.4
		v-5.6h3.1v5.6c0,0.7,0.4,1.1,1.2,1.1c0.7,0,1.2-0.2,1.5-0.7v-6.1h3.1v8.7H197L196.9,326.5z"/>
	<path id="XMLID_406_" class="st11" d="M204.4,318.8l0.1,1c0.7-0.8,1.6-1.2,2.8-1.2c1.2,0,2.1,0.4,2.5,1.3c0.7-0.9,1.6-1.3,2.9-1.3
		c2,0,3,1.1,3.1,3.2v5.7h-3.1V322c0-0.4-0.1-0.8-0.3-1c-0.2-0.2-0.5-0.3-0.9-0.3c-0.6,0-1.1,0.2-1.4,0.7l0,0.1v5.9h-3.1V322
		c0-0.5-0.1-0.8-0.2-1c-0.2-0.2-0.5-0.3-0.9-0.3c-0.6,0-1,0.2-1.3,0.7v6h-3.1v-8.7H204.4z"/>
	<path id="XMLID_408_" class="st11" d="M220.4,318.8l0.1,1c0.7-0.8,1.6-1.2,2.8-1.2c1.2,0,2.1,0.4,2.5,1.3c0.7-0.9,1.6-1.3,2.9-1.3
		c2,0,3,1.1,3.1,3.2v5.7h-3.1V322c0-0.4-0.1-0.8-0.3-1c-0.2-0.2-0.5-0.3-0.9-0.3c-0.6,0-1.1,0.2-1.4,0.7l0,0.1v5.9h-3.1V322
		c0-0.5-0.1-0.8-0.2-1c-0.2-0.2-0.5-0.3-0.9-0.3c-0.6,0-1,0.2-1.3,0.7v6h-3.1v-8.7H220.4z"/>
	<path id="XMLID_410_" class="st11" d="M237.5,323.7l1.6-4.9h3.3l-4,10.1l-0.2,0.4c-0.6,1.1-1.6,1.7-3,1.7c-0.4,0-0.8-0.1-1.3-0.2
		v-1.9h0.4c0.4,0,0.8-0.1,1-0.2c0.2-0.1,0.4-0.3,0.5-0.6l0.2-0.6l-3.4-8.8h3.3L237.5,323.7z"/>
	<path id="XMLID_412_" class="st11" d="M251.4,316.6v2.2h1.6v1.9h-1.6v4c0,0.3,0.1,0.6,0.2,0.7c0.1,0.1,0.4,0.2,0.8,0.2
		c0.3,0,0.6,0,0.8,0v1.9c-0.6,0.2-1.1,0.2-1.7,0.2c-1.1,0-1.8-0.2-2.3-0.7c-0.5-0.4-0.8-1.1-0.8-2v-4.3h-1.3v-1.9h1.3v-2.2H251.4z"
		/>
	<path id="XMLID_414_" class="st11" d="M259,327.6c-1.5,0-2.7-0.4-3.7-1.2c-0.9-0.8-1.4-1.8-1.4-3.1v-0.2c0-0.9,0.2-1.7,0.6-2.4
		c0.4-0.7,0.9-1.2,1.6-1.6c0.7-0.4,1.6-0.6,2.5-0.6c1.4,0,2.5,0.4,3.3,1.1s1.2,1.8,1.2,3.2v1.1H257c0.1,0.5,0.3,0.9,0.7,1.1
		c0.4,0.3,0.8,0.4,1.4,0.4c1,0,1.7-0.3,2.3-0.9l1.4,1.5c-0.4,0.5-0.9,0.8-1.6,1.1C260.5,327.5,259.8,327.6,259,327.6z M258.6,320.7
		c-0.9,0-1.4,0.5-1.6,1.6h3.1v-0.2c0-0.4-0.1-0.8-0.4-1C259.5,320.8,259.1,320.7,258.6,320.7z"/>
	<path id="XMLID_417_" class="st11" d="M268.3,321.2l1.4-2.4h3.2l-2.6,4.2l2.7,4.5h-3.2l-1.5-2.6l-1.5,2.6h-3.2l2.7-4.5l-2.6-4.2
		h3.2L268.3,321.2z"/>
	<path id="XMLID_419_" class="st11" d="M277.5,316.6v2.2h1.6v1.9h-1.6v4c0,0.3,0.1,0.6,0.2,0.7c0.1,0.1,0.4,0.2,0.8,0.2
		c0.3,0,0.6,0,0.8,0v1.9c-0.6,0.2-1.1,0.2-1.7,0.2c-1.1,0-1.8-0.2-2.3-0.7c-0.5-0.4-0.8-1.1-0.8-2v-4.3h-1.3v-1.9h1.3v-2.2H277.5z"
		/>
	<path id="XMLID_421_" class="st11" d="M289.7,327.6c-1.5,0-2.7-0.4-3.7-1.2c-0.9-0.8-1.4-1.8-1.4-3.1v-0.2c0-0.9,0.2-1.7,0.6-2.4
		c0.4-0.7,0.9-1.2,1.6-1.6c0.7-0.4,1.6-0.6,2.5-0.6c1.4,0,2.5,0.4,3.3,1.1s1.2,1.8,1.2,3.2v1.1h-6.1c0.1,0.5,0.3,0.9,0.7,1.1
		c0.4,0.3,0.8,0.4,1.4,0.4c1,0,1.7-0.3,2.3-0.9l1.4,1.5c-0.4,0.5-0.9,0.8-1.6,1.1C291.2,327.5,290.5,327.6,289.7,327.6z
		 M289.3,320.7c-0.9,0-1.4,0.5-1.6,1.6h3.1v-0.2c0-0.4-0.1-0.8-0.4-1C290.2,320.8,289.8,320.7,289.3,320.7z"/>
	<path id="XMLID_424_" class="st11" d="M298.9,324.2l1.6-5.5h3.2l-3.2,8.7h-3.1l-3.2-8.7h3.2L298.9,324.2z"/>
	<path id="XMLID_426_" class="st11" d="M309.2,327.6c-1.5,0-2.7-0.4-3.7-1.2c-0.9-0.8-1.4-1.8-1.4-3.1v-0.2c0-0.9,0.2-1.7,0.6-2.4
		c0.4-0.7,0.9-1.2,1.6-1.6c0.7-0.4,1.6-0.6,2.5-0.6c1.4,0,2.5,0.4,3.3,1.1s1.2,1.8,1.2,3.2v1.1h-6.1c0.1,0.5,0.3,0.9,0.7,1.1
		c0.4,0.3,0.8,0.4,1.4,0.4c1,0,1.7-0.3,2.3-0.9l1.4,1.5c-0.4,0.5-0.9,0.8-1.6,1.1C310.7,327.5,310,327.6,309.2,327.6z M308.8,320.7
		c-0.9,0-1.4,0.5-1.6,1.6h3.1v-0.2c0-0.4-0.1-0.8-0.4-1C309.7,320.8,309.3,320.7,308.8,320.7z"/>
	<path id="XMLID_429_" class="st11" d="M320.5,321.2l-1-0.1c-1,0-1.6,0.3-1.9,0.8v5.5h-3.1v-8.7h2.9l0.1,1.1
		c0.5-0.9,1.2-1.3,2.2-1.3c0.3,0,0.6,0,0.9,0.1L320.5,321.2z"/>
	<path id="XMLID_431_" class="st11" d="M331.4,325c0-0.2-0.1-0.4-0.4-0.6c-0.3-0.1-0.8-0.3-1.6-0.4s-1.4-0.3-1.9-0.6
		c-0.5-0.2-0.9-0.5-1.1-0.9c-0.3-0.3-0.4-0.7-0.4-1.2c0-0.8,0.4-1.5,1.1-2c0.7-0.5,1.7-0.8,2.9-0.8c1.3,0,2.3,0.3,3.1,0.8
		c0.8,0.5,1.2,1.2,1.2,2h-3.1c0-0.7-0.4-1-1.2-1c-0.3,0-0.6,0.1-0.8,0.2c-0.2,0.2-0.3,0.4-0.3,0.6c0,0.2,0.1,0.4,0.4,0.6
		c0.3,0.1,0.7,0.3,1.3,0.4c0.6,0.1,1.1,0.2,1.5,0.3c1.5,0.4,2.2,1.3,2.2,2.4c0,0.8-0.4,1.4-1.2,1.9c-0.8,0.5-1.8,0.7-3.1,0.7
		c-0.8,0-1.6-0.1-2.3-0.4c-0.7-0.3-1.2-0.6-1.5-1.1c-0.4-0.5-0.6-0.9-0.6-1.5h2.9c0,0.4,0.2,0.7,0.5,0.9c0.3,0.2,0.7,0.3,1.1,0.3
		c0.4,0,0.7-0.1,0.9-0.2C331.3,325.4,331.4,325.2,331.4,325z"/>
	<path id="XMLID_433_" class="st11" d="M335.7,316.5c0-0.4,0.2-0.7,0.5-0.9c0.3-0.2,0.7-0.4,1.2-0.4c0.5,0,0.9,0.1,1.2,0.4
		s0.5,0.6,0.5,0.9c0,0.4-0.2,0.7-0.5,0.9s-0.7,0.4-1.2,0.4c-0.5,0-0.9-0.1-1.2-0.4C335.9,317.2,335.7,316.9,335.7,316.5z M339,327.4
		h-3.1v-8.7h3.1V327.4z"/>
	<path id="XMLID_436_" class="st11" d="M343.7,318.8l0.1,1c0.7-0.8,1.6-1.2,2.8-1.2c1,0,1.8,0.3,2.3,0.8c0.5,0.5,0.8,1.4,0.8,2.4
		v5.6h-3.1V322c0-0.4-0.1-0.8-0.3-1c-0.2-0.2-0.6-0.3-1.1-0.3c-0.6,0-1,0.2-1.3,0.6v6.1h-3.1v-8.7H343.7z"/>
	<path id="XMLID_438_" class="st11" d="M355.5,325.5c0.4,0,0.8-0.1,1-0.3c0.2-0.2,0.4-0.5,0.3-0.9h2.9c0,1-0.4,1.7-1.2,2.3
		s-1.8,0.9-3,0.9c-1.4,0-2.6-0.4-3.4-1.2s-1.2-1.9-1.2-3.3V323c0-0.9,0.2-1.7,0.5-2.3c0.4-0.7,0.9-1.2,1.6-1.5
		c0.7-0.4,1.5-0.5,2.5-0.5c1.3,0,2.3,0.3,3,0.9c0.8,0.6,1.1,1.5,1.1,2.5h-2.9c0-0.4-0.1-0.8-0.4-1c-0.2-0.2-0.6-0.4-1-0.4
		c-0.8,0-1.3,0.4-1.4,1.3c0,0.3-0.1,0.7-0.1,1.2c0,0.9,0.1,1.5,0.4,1.8C354.6,325.4,355,325.5,355.5,325.5z"/>
	<path id="XMLID_440_" class="st11" d="M365.8,327.6c-1.5,0-2.7-0.4-3.7-1.2c-0.9-0.8-1.4-1.8-1.4-3.1v-0.2c0-0.9,0.2-1.7,0.6-2.4
		c0.4-0.7,0.9-1.2,1.6-1.6c0.7-0.4,1.6-0.6,2.5-0.6c1.4,0,2.5,0.4,3.3,1.1s1.2,1.8,1.2,3.2v1.1h-6.1c0.1,0.5,0.3,0.9,0.7,1.1
		c0.4,0.3,0.8,0.4,1.4,0.4c1,0,1.7-0.3,2.3-0.9l1.4,1.5c-0.4,0.5-0.9,0.8-1.6,1.1C367.4,327.5,366.6,327.6,365.8,327.6z
		 M365.4,320.7c-0.9,0-1.4,0.5-1.6,1.6h3.1v-0.2c0-0.4-0.1-0.8-0.4-1C366.3,320.8,365.9,320.7,365.4,320.7z"/>
	<path id="XMLID_443_" class="st11" d="M379.4,316.6v2.2h1.6v1.9h-1.6v4c0,0.3,0.1,0.6,0.2,0.7c0.1,0.1,0.4,0.2,0.8,0.2
		c0.3,0,0.6,0,0.8,0v1.9c-0.6,0.2-1.1,0.2-1.7,0.2c-1.1,0-1.8-0.2-2.3-0.7s-0.8-1.1-0.8-2v-4.3h-1.3v-1.9h1.3v-2.2H379.4z"/>
	<path id="XMLID_445_" class="st11" d="M385.2,319.7c0.7-0.7,1.5-1.1,2.5-1.1c1.1,0,1.9,0.3,2.5,0.9c0.6,0.6,0.8,1.4,0.8,2.5v5.5
		h-3.1V322c0-0.5-0.1-0.8-0.3-1c-0.2-0.2-0.6-0.3-1.1-0.3c-0.6,0-1.1,0.2-1.3,0.5v6.2h-3.1v-12.3h3.1V319.7z"/>
	<path id="XMLID_447_" class="st11" d="M397.4,327.6c-1.5,0-2.7-0.4-3.7-1.2c-0.9-0.8-1.4-1.8-1.4-3.1v-0.2c0-0.9,0.2-1.7,0.6-2.4
		c0.4-0.7,0.9-1.2,1.6-1.6c0.7-0.4,1.6-0.6,2.5-0.6c1.4,0,2.5,0.4,3.3,1.1c0.8,0.8,1.2,1.8,1.2,3.2v1.1h-6.1
		c0.1,0.5,0.3,0.9,0.7,1.1c0.4,0.3,0.8,0.4,1.4,0.4c1,0,1.7-0.3,2.3-0.9l1.4,1.5c-0.4,0.5-0.9,0.8-1.6,1.1
		C399,327.5,398.2,327.6,397.4,327.6z M397.1,320.7c-0.9,0-1.4,0.5-1.6,1.6h3.1v-0.2c0-0.4-0.1-0.8-0.4-1
		C398,320.8,397.6,320.7,397.1,320.7z"/>
	<path id="XMLID_450_" class="st11" d="M414.2,327.4h-3.1v-8.6l-3,0.8v-2.1l5.8-1.8h0.3V327.4z"/>
	<path id="XMLID_452_" class="st11" d="M418.4,321.7l0.8-6h7.7v2.1h-5.2l-0.3,2.3c0.2-0.1,0.5-0.2,0.9-0.3c0.4-0.1,0.7-0.1,1-0.1
		c1.3,0,2.3,0.3,3,1c0.7,0.7,1.1,1.7,1.1,2.9c0,0.7-0.2,1.4-0.6,2c-0.4,0.6-0.9,1.1-1.6,1.4c-0.7,0.3-1.5,0.5-2.4,0.5
		c-0.8,0-1.6-0.2-2.3-0.5c-0.7-0.3-1.3-0.7-1.7-1.2c-0.4-0.5-0.6-1.1-0.6-1.8h3.1c0,0.4,0.2,0.8,0.5,1c0.3,0.3,0.6,0.4,1.1,0.4
		c1,0,1.5-0.7,1.5-2c0-1.2-0.6-1.9-1.9-1.9c-0.7,0-1.2,0.2-1.6,0.6L418.4,321.7z"/>
	<path id="XMLID_454_" class="st11" d="M438.1,322.7c0,1.6-0.4,2.8-1.2,3.7c-0.8,0.9-1.9,1.3-3.4,1.3c-1.5,0-2.6-0.4-3.4-1.3
		c-0.8-0.9-1.2-2.1-1.2-3.6v-2.1c0-1.6,0.4-2.8,1.2-3.7s1.9-1.3,3.4-1.3c1.5,0,2.6,0.4,3.4,1.3c0.8,0.9,1.2,2.1,1.2,3.7V322.7z
		 M435.1,320.2c0-0.8-0.1-1.5-0.4-1.9s-0.6-0.6-1.2-0.6c-0.5,0-0.9,0.2-1.1,0.6c-0.2,0.4-0.4,1-0.4,1.8v3c0,0.9,0.1,1.5,0.4,1.9
		c0.2,0.4,0.6,0.6,1.2,0.6c0.5,0,0.9-0.2,1.2-0.6c0.2-0.4,0.4-1,0.4-1.9V320.2z"/>
	<path id="XMLID_457_" class="st11" d="M448.9,322.7c0,1.6-0.4,2.8-1.2,3.7c-0.8,0.9-1.9,1.3-3.4,1.3c-1.5,0-2.6-0.4-3.4-1.3
		c-0.8-0.9-1.2-2.1-1.2-3.6v-2.1c0-1.6,0.4-2.8,1.2-3.7s1.9-1.3,3.4-1.3c1.5,0,2.6,0.4,3.4,1.3c0.8,0.9,1.2,2.1,1.2,3.7V322.7z
		 M445.8,320.2c0-0.8-0.1-1.5-0.4-1.9s-0.6-0.6-1.2-0.6c-0.5,0-0.9,0.2-1.1,0.6c-0.2,0.4-0.4,1-0.4,1.8v3c0,0.9,0.1,1.5,0.4,1.9
		c0.2,0.4,0.6,0.6,1.2,0.6c0.5,0,0.9-0.2,1.2-0.6c0.2-0.4,0.4-1,0.4-1.9V320.2z"/>
	<path id="XMLID_460_" class="st11" d="M455.7,325c0-0.2-0.1-0.4-0.4-0.6c-0.3-0.1-0.8-0.3-1.6-0.4c-0.8-0.1-1.4-0.3-1.9-0.6
		c-0.5-0.2-0.9-0.5-1.1-0.9c-0.3-0.3-0.4-0.7-0.4-1.2c0-0.8,0.4-1.5,1.1-2c0.7-0.5,1.7-0.8,2.9-0.8c1.3,0,2.3,0.3,3.1,0.8
		c0.8,0.5,1.2,1.2,1.2,2h-3.1c0-0.7-0.4-1-1.2-1c-0.3,0-0.6,0.1-0.8,0.2c-0.2,0.2-0.3,0.4-0.3,0.6c0,0.2,0.1,0.4,0.4,0.6
		s0.7,0.3,1.3,0.4c0.6,0.1,1.1,0.2,1.5,0.3c1.5,0.4,2.2,1.3,2.2,2.4c0,0.8-0.4,1.4-1.2,1.9c-0.8,0.5-1.8,0.7-3.1,0.7
		c-0.8,0-1.6-0.1-2.3-0.4c-0.7-0.3-1.2-0.6-1.5-1.1c-0.4-0.5-0.6-0.9-0.6-1.5h2.9c0,0.4,0.2,0.7,0.5,0.9c0.3,0.2,0.7,0.3,1.1,0.3
		c0.4,0,0.7-0.1,0.9-0.2C455.6,325.4,455.7,325.2,455.7,325z"/>
</g>
<path id="XMLID_143_" class="st12" d="M269.9,429.8h-166c-3,0-5.4-2.5-5.4-5.4v-34.3c0-3,2.5-5.4,5.4-5.4h166c3,0,5.4,2.5,5.4,5.4
	v34.3C275.3,427.3,272.9,429.8,269.9,429.8z"/>
<g id="XMLID_144_">
	<path id="XMLID_174_" class="st13" d="M146.3,409.3c0-0.3-0.1-0.6-0.3-0.7s-0.6-0.4-1.2-0.5c-0.6-0.2-1-0.4-1.4-0.5
		c-1.1-0.6-1.7-1.3-1.7-2.3c0-0.5,0.1-0.9,0.4-1.3s0.7-0.7,1.2-0.9s1.1-0.3,1.8-0.3c0.6,0,1.2,0.1,1.7,0.3c0.5,0.2,0.9,0.5,1.2,1
		c0.3,0.4,0.4,0.9,0.4,1.4h-2.1c0-0.4-0.1-0.6-0.3-0.8c-0.2-0.2-0.5-0.3-0.9-0.3c-0.4,0-0.7,0.1-0.9,0.3c-0.2,0.2-0.3,0.4-0.3,0.6
		c0,0.2,0.1,0.4,0.4,0.6c0.2,0.2,0.7,0.4,1.3,0.6c0.6,0.2,1.1,0.4,1.5,0.6c1,0.5,1.4,1.3,1.4,2.3c0,0.8-0.3,1.4-0.9,1.8
		c-0.6,0.4-1.4,0.7-2.4,0.7c-0.7,0-1.4-0.1-1.9-0.4s-1-0.6-1.3-1.1c-0.3-0.4-0.4-1-0.4-1.5h2.1c0,0.5,0.1,0.8,0.4,1
		c0.2,0.2,0.6,0.3,1.2,0.3c0.4,0,0.6-0.1,0.8-0.2C146.2,409.8,146.3,409.5,146.3,409.3z"/>
	<path id="XMLID_176_" class="st13" d="M157.4,407.9h-3.3v2.1h3.9v1.6H152v-8.8h6.1v1.6h-4v1.9h3.3V407.9z"/>
	<path id="XMLID_178_" class="st13" d="M168.5,408.6c0,0.6-0.2,1.2-0.5,1.6c-0.3,0.5-0.7,0.8-1.3,1.1s-1.2,0.4-1.9,0.4
		c-1.2,0-2.1-0.4-2.7-1.1c-0.7-0.8-1-1.8-1-3.2V407c0-0.9,0.2-1.6,0.5-2.3s0.7-1.1,1.3-1.5s1.2-0.5,2-0.5c1.1,0,1.9,0.3,2.6,0.8
		s1,1.3,1.1,2.3h-2.1c0-0.5-0.2-0.9-0.4-1.2s-0.6-0.4-1.2-0.4c-0.5,0-0.9,0.2-1.2,0.6c-0.2,0.4-0.4,1-0.4,1.9v0.6
		c0,0.9,0.1,1.6,0.4,2c0.2,0.4,0.6,0.6,1.2,0.6c0.5,0,0.9-0.1,1.1-0.3c0.3-0.2,0.4-0.6,0.4-1.1H168.5z"/>
	<path id="XMLID_180_" class="st13" d="M178.9,402.8v5.8c0,0.7-0.1,1.2-0.4,1.7s-0.7,0.8-1.2,1.1s-1.1,0.4-1.8,0.4
		c-1.1,0-1.9-0.3-2.5-0.8c-0.6-0.6-0.9-1.3-0.9-2.3v-5.8h2.1v5.8c0,1,0.5,1.4,1.3,1.4c0.4,0,0.8-0.1,1-0.4c0.2-0.2,0.3-0.6,0.3-1.2
		v-5.8H178.9z"/>
	<path id="XMLID_182_" class="st13" d="M186,408.5h-1.1v3.1h-2.1v-8.8h3.5c1,0,1.9,0.2,2.4,0.7c0.6,0.5,0.9,1.1,0.9,2
		c0,0.6-0.1,1.1-0.4,1.5c-0.2,0.4-0.6,0.7-1.2,1l1.8,3.6v0.1h-2.3L186,408.5z M184.8,406.9h1.3c0.4,0,0.7-0.1,0.9-0.3
		c0.2-0.2,0.3-0.5,0.3-0.9c0-0.4-0.1-0.7-0.3-0.9c-0.2-0.2-0.5-0.3-0.9-0.3h-1.3V406.9z"/>
	<path id="XMLID_185_" class="st13" d="M198.7,407.9h-3.3v2.1h3.9v1.6h-6.1v-8.8h6.1v1.6h-4v1.9h3.3V407.9z"/>
	<path id="XMLID_187_" class="st13" d="M211,402.8l2,6.1l2-6.1h2.8v8.8h-2.1v-2.1l0.2-4.2l-2.1,6.3h-1.4l-2.1-6.3l0.2,4.2v2.1h-2.1
		v-8.8H211z"/>
	<path id="XMLID_189_" class="st13" d="M227,407.9h-3.3v2.1h3.9v1.6h-6.1v-8.8h6.1v1.6h-4v1.9h3.3V407.9z"/>
</g>
</svg>
